%TF.GenerationSoftware,KiCad,Pcbnew,10.0.1*%
%TF.CreationDate,2026-05-08T20:38:29+05:30*%
%TF.ProjectId,pigmy-corydora,7069676d-792d-4636-9f72-79646f72612e,V 1.0*%
%TF.SameCoordinates,Original*%
%TF.FileFunction,Legend,Top*%
%TF.FilePolarity,Positive*%
%FSLAX46Y46*%
G04 Gerber Fmt 4.6, Leading zero omitted, Abs format (unit mm)*
G04 Created by KiCad (PCBNEW 10.0.1) date 2026-05-08 20:38:29*
%MOMM*%
%LPD*%
G01*
G04 APERTURE LIST*
%ADD10C,0.300000*%
%ADD11C,0.150000*%
%ADD12C,0.120000*%
%ADD13C,0.010000*%
G04 APERTURE END LIST*
D10*
X114340225Y-56800828D02*
X114625939Y-56800828D01*
X114625939Y-56800828D02*
X114768796Y-56872257D01*
X114768796Y-56872257D02*
X114911653Y-57015114D01*
X114911653Y-57015114D02*
X114983082Y-57300828D01*
X114983082Y-57300828D02*
X114983082Y-57800828D01*
X114983082Y-57800828D02*
X114911653Y-58086542D01*
X114911653Y-58086542D02*
X114768796Y-58229400D01*
X114768796Y-58229400D02*
X114625939Y-58300828D01*
X114625939Y-58300828D02*
X114340225Y-58300828D01*
X114340225Y-58300828D02*
X114197368Y-58229400D01*
X114197368Y-58229400D02*
X114054510Y-58086542D01*
X114054510Y-58086542D02*
X113983082Y-57800828D01*
X113983082Y-57800828D02*
X113983082Y-57300828D01*
X113983082Y-57300828D02*
X114054510Y-57015114D01*
X114054510Y-57015114D02*
X114197368Y-56872257D01*
X114197368Y-56872257D02*
X114340225Y-56800828D01*
X115625939Y-58300828D02*
X115625939Y-57300828D01*
X115625939Y-57443685D02*
X115697368Y-57372257D01*
X115697368Y-57372257D02*
X115840225Y-57300828D01*
X115840225Y-57300828D02*
X116054511Y-57300828D01*
X116054511Y-57300828D02*
X116197368Y-57372257D01*
X116197368Y-57372257D02*
X116268797Y-57515114D01*
X116268797Y-57515114D02*
X116268797Y-58300828D01*
X116268797Y-57515114D02*
X116340225Y-57372257D01*
X116340225Y-57372257D02*
X116483082Y-57300828D01*
X116483082Y-57300828D02*
X116697368Y-57300828D01*
X116697368Y-57300828D02*
X116840225Y-57372257D01*
X116840225Y-57372257D02*
X116911654Y-57515114D01*
X116911654Y-57515114D02*
X116911654Y-58300828D01*
X117625939Y-57300828D02*
X117625939Y-58300828D01*
X117625939Y-57443685D02*
X117697368Y-57372257D01*
X117697368Y-57372257D02*
X117840225Y-57300828D01*
X117840225Y-57300828D02*
X118054511Y-57300828D01*
X118054511Y-57300828D02*
X118197368Y-57372257D01*
X118197368Y-57372257D02*
X118268797Y-57515114D01*
X118268797Y-57515114D02*
X118268797Y-58300828D01*
X119554511Y-58229400D02*
X119411654Y-58300828D01*
X119411654Y-58300828D02*
X119125940Y-58300828D01*
X119125940Y-58300828D02*
X118983082Y-58229400D01*
X118983082Y-58229400D02*
X118911654Y-58086542D01*
X118911654Y-58086542D02*
X118911654Y-57515114D01*
X118911654Y-57515114D02*
X118983082Y-57372257D01*
X118983082Y-57372257D02*
X119125940Y-57300828D01*
X119125940Y-57300828D02*
X119411654Y-57300828D01*
X119411654Y-57300828D02*
X119554511Y-57372257D01*
X119554511Y-57372257D02*
X119625940Y-57515114D01*
X119625940Y-57515114D02*
X119625940Y-57657971D01*
X119625940Y-57657971D02*
X118911654Y-57800828D01*
X121197368Y-57300828D02*
X121768796Y-57300828D01*
X121411653Y-56800828D02*
X121411653Y-58086542D01*
X121411653Y-58086542D02*
X121483082Y-58229400D01*
X121483082Y-58229400D02*
X121625939Y-58300828D01*
X121625939Y-58300828D02*
X121768796Y-58300828D01*
X122268796Y-58300828D02*
X122268796Y-57300828D01*
X122268796Y-57586542D02*
X122340225Y-57443685D01*
X122340225Y-57443685D02*
X122411654Y-57372257D01*
X122411654Y-57372257D02*
X122554511Y-57300828D01*
X122554511Y-57300828D02*
X122697368Y-57300828D01*
X123197367Y-58300828D02*
X123197367Y-57300828D01*
X123197367Y-56800828D02*
X123125939Y-56872257D01*
X123125939Y-56872257D02*
X123197367Y-56943685D01*
X123197367Y-56943685D02*
X123268796Y-56872257D01*
X123268796Y-56872257D02*
X123197367Y-56800828D01*
X123197367Y-56800828D02*
X123197367Y-56943685D01*
X124554511Y-57300828D02*
X124554511Y-58300828D01*
X123911653Y-57300828D02*
X123911653Y-58086542D01*
X123911653Y-58086542D02*
X123983082Y-58229400D01*
X123983082Y-58229400D02*
X124125939Y-58300828D01*
X124125939Y-58300828D02*
X124340225Y-58300828D01*
X124340225Y-58300828D02*
X124483082Y-58229400D01*
X124483082Y-58229400D02*
X124554511Y-58157971D01*
X125268796Y-58300828D02*
X125268796Y-57300828D01*
X125268796Y-57443685D02*
X125340225Y-57372257D01*
X125340225Y-57372257D02*
X125483082Y-57300828D01*
X125483082Y-57300828D02*
X125697368Y-57300828D01*
X125697368Y-57300828D02*
X125840225Y-57372257D01*
X125840225Y-57372257D02*
X125911654Y-57515114D01*
X125911654Y-57515114D02*
X125911654Y-58300828D01*
X125911654Y-57515114D02*
X125983082Y-57372257D01*
X125983082Y-57372257D02*
X126125939Y-57300828D01*
X126125939Y-57300828D02*
X126340225Y-57300828D01*
X126340225Y-57300828D02*
X126483082Y-57372257D01*
X126483082Y-57372257D02*
X126554511Y-57515114D01*
X126554511Y-57515114D02*
X126554511Y-58300828D01*
X128411653Y-57300828D02*
X128411653Y-58800828D01*
X128411653Y-57372257D02*
X128554511Y-57300828D01*
X128554511Y-57300828D02*
X128840225Y-57300828D01*
X128840225Y-57300828D02*
X128983082Y-57372257D01*
X128983082Y-57372257D02*
X129054511Y-57443685D01*
X129054511Y-57443685D02*
X129125939Y-57586542D01*
X129125939Y-57586542D02*
X129125939Y-58015114D01*
X129125939Y-58015114D02*
X129054511Y-58157971D01*
X129054511Y-58157971D02*
X128983082Y-58229400D01*
X128983082Y-58229400D02*
X128840225Y-58300828D01*
X128840225Y-58300828D02*
X128554511Y-58300828D01*
X128554511Y-58300828D02*
X128411653Y-58229400D01*
X130340225Y-58229400D02*
X130197368Y-58300828D01*
X130197368Y-58300828D02*
X129911654Y-58300828D01*
X129911654Y-58300828D02*
X129768796Y-58229400D01*
X129768796Y-58229400D02*
X129697368Y-58086542D01*
X129697368Y-58086542D02*
X129697368Y-57515114D01*
X129697368Y-57515114D02*
X129768796Y-57372257D01*
X129768796Y-57372257D02*
X129911654Y-57300828D01*
X129911654Y-57300828D02*
X130197368Y-57300828D01*
X130197368Y-57300828D02*
X130340225Y-57372257D01*
X130340225Y-57372257D02*
X130411654Y-57515114D01*
X130411654Y-57515114D02*
X130411654Y-57657971D01*
X130411654Y-57657971D02*
X129697368Y-57800828D01*
X131054510Y-58300828D02*
X131054510Y-57300828D01*
X131054510Y-57586542D02*
X131125939Y-57443685D01*
X131125939Y-57443685D02*
X131197368Y-57372257D01*
X131197368Y-57372257D02*
X131340225Y-57300828D01*
X131340225Y-57300828D02*
X131483082Y-57300828D01*
X131768796Y-57300828D02*
X132340224Y-57300828D01*
X131983081Y-58300828D02*
X131983081Y-57015114D01*
X131983081Y-57015114D02*
X132054510Y-56872257D01*
X132054510Y-56872257D02*
X132197367Y-56800828D01*
X132197367Y-56800828D02*
X132340224Y-56800828D01*
X133411653Y-58229400D02*
X133268796Y-58300828D01*
X133268796Y-58300828D02*
X132983082Y-58300828D01*
X132983082Y-58300828D02*
X132840224Y-58229400D01*
X132840224Y-58229400D02*
X132768796Y-58086542D01*
X132768796Y-58086542D02*
X132768796Y-57515114D01*
X132768796Y-57515114D02*
X132840224Y-57372257D01*
X132840224Y-57372257D02*
X132983082Y-57300828D01*
X132983082Y-57300828D02*
X133268796Y-57300828D01*
X133268796Y-57300828D02*
X133411653Y-57372257D01*
X133411653Y-57372257D02*
X133483082Y-57515114D01*
X133483082Y-57515114D02*
X133483082Y-57657971D01*
X133483082Y-57657971D02*
X132768796Y-57800828D01*
X134768796Y-58229400D02*
X134625938Y-58300828D01*
X134625938Y-58300828D02*
X134340224Y-58300828D01*
X134340224Y-58300828D02*
X134197367Y-58229400D01*
X134197367Y-58229400D02*
X134125938Y-58157971D01*
X134125938Y-58157971D02*
X134054510Y-58015114D01*
X134054510Y-58015114D02*
X134054510Y-57586542D01*
X134054510Y-57586542D02*
X134125938Y-57443685D01*
X134125938Y-57443685D02*
X134197367Y-57372257D01*
X134197367Y-57372257D02*
X134340224Y-57300828D01*
X134340224Y-57300828D02*
X134625938Y-57300828D01*
X134625938Y-57300828D02*
X134768796Y-57372257D01*
X135197367Y-57300828D02*
X135768795Y-57300828D01*
X135411652Y-56800828D02*
X135411652Y-58086542D01*
X135411652Y-58086542D02*
X135483081Y-58229400D01*
X135483081Y-58229400D02*
X135625938Y-58300828D01*
X135625938Y-58300828D02*
X135768795Y-58300828D01*
X136911653Y-57300828D02*
X136911653Y-58300828D01*
X136268795Y-57300828D02*
X136268795Y-58086542D01*
X136268795Y-58086542D02*
X136340224Y-58229400D01*
X136340224Y-58229400D02*
X136483081Y-58300828D01*
X136483081Y-58300828D02*
X136697367Y-58300828D01*
X136697367Y-58300828D02*
X136840224Y-58229400D01*
X136840224Y-58229400D02*
X136911653Y-58157971D01*
X137625938Y-58300828D02*
X137625938Y-57300828D01*
X137625938Y-57443685D02*
X137697367Y-57372257D01*
X137697367Y-57372257D02*
X137840224Y-57300828D01*
X137840224Y-57300828D02*
X138054510Y-57300828D01*
X138054510Y-57300828D02*
X138197367Y-57372257D01*
X138197367Y-57372257D02*
X138268796Y-57515114D01*
X138268796Y-57515114D02*
X138268796Y-58300828D01*
X138268796Y-57515114D02*
X138340224Y-57372257D01*
X138340224Y-57372257D02*
X138483081Y-57300828D01*
X138483081Y-57300828D02*
X138697367Y-57300828D01*
X138697367Y-57300828D02*
X138840224Y-57372257D01*
X138840224Y-57372257D02*
X138911653Y-57515114D01*
X138911653Y-57515114D02*
X138911653Y-58300828D01*
X139625938Y-58157971D02*
X139697367Y-58229400D01*
X139697367Y-58229400D02*
X139625938Y-58300828D01*
X139625938Y-58300828D02*
X139554510Y-58229400D01*
X139554510Y-58229400D02*
X139625938Y-58157971D01*
X139625938Y-58157971D02*
X139625938Y-58300828D01*
D11*
X153238095Y-56954819D02*
X153238095Y-55954819D01*
X153238095Y-56431009D02*
X153809523Y-56431009D01*
X153809523Y-56954819D02*
X153809523Y-55954819D01*
X154714285Y-56288152D02*
X154714285Y-56954819D01*
X154476190Y-55907200D02*
X154238095Y-56621485D01*
X154238095Y-56621485D02*
X154857142Y-56621485D01*
X144746667Y-39407200D02*
X144889524Y-39454819D01*
X144889524Y-39454819D02*
X145127619Y-39454819D01*
X145127619Y-39454819D02*
X145222857Y-39407200D01*
X145222857Y-39407200D02*
X145270476Y-39359580D01*
X145270476Y-39359580D02*
X145318095Y-39264342D01*
X145318095Y-39264342D02*
X145318095Y-39169104D01*
X145318095Y-39169104D02*
X145270476Y-39073866D01*
X145270476Y-39073866D02*
X145222857Y-39026247D01*
X145222857Y-39026247D02*
X145127619Y-38978628D01*
X145127619Y-38978628D02*
X144937143Y-38931009D01*
X144937143Y-38931009D02*
X144841905Y-38883390D01*
X144841905Y-38883390D02*
X144794286Y-38835771D01*
X144794286Y-38835771D02*
X144746667Y-38740533D01*
X144746667Y-38740533D02*
X144746667Y-38645295D01*
X144746667Y-38645295D02*
X144794286Y-38550057D01*
X144794286Y-38550057D02*
X144841905Y-38502438D01*
X144841905Y-38502438D02*
X144937143Y-38454819D01*
X144937143Y-38454819D02*
X145175238Y-38454819D01*
X145175238Y-38454819D02*
X145318095Y-38502438D01*
X145651429Y-38454819D02*
X145889524Y-39454819D01*
X145889524Y-39454819D02*
X146080000Y-38740533D01*
X146080000Y-38740533D02*
X146270476Y-39454819D01*
X146270476Y-39454819D02*
X146508572Y-38454819D01*
X146794286Y-38454819D02*
X147413333Y-38454819D01*
X147413333Y-38454819D02*
X147080000Y-38835771D01*
X147080000Y-38835771D02*
X147222857Y-38835771D01*
X147222857Y-38835771D02*
X147318095Y-38883390D01*
X147318095Y-38883390D02*
X147365714Y-38931009D01*
X147365714Y-38931009D02*
X147413333Y-39026247D01*
X147413333Y-39026247D02*
X147413333Y-39264342D01*
X147413333Y-39264342D02*
X147365714Y-39359580D01*
X147365714Y-39359580D02*
X147318095Y-39407200D01*
X147318095Y-39407200D02*
X147222857Y-39454819D01*
X147222857Y-39454819D02*
X146937143Y-39454819D01*
X146937143Y-39454819D02*
X146841905Y-39407200D01*
X146841905Y-39407200D02*
X146794286Y-39359580D01*
X96238095Y-35104819D02*
X96238095Y-34104819D01*
X96238095Y-34581009D02*
X96809523Y-34581009D01*
X96809523Y-35104819D02*
X96809523Y-34104819D01*
X97809523Y-35104819D02*
X97238095Y-35104819D01*
X97523809Y-35104819D02*
X97523809Y-34104819D01*
X97523809Y-34104819D02*
X97428571Y-34247676D01*
X97428571Y-34247676D02*
X97333333Y-34342914D01*
X97333333Y-34342914D02*
X97238095Y-34390533D01*
X105666667Y-39407200D02*
X105809524Y-39454819D01*
X105809524Y-39454819D02*
X106047619Y-39454819D01*
X106047619Y-39454819D02*
X106142857Y-39407200D01*
X106142857Y-39407200D02*
X106190476Y-39359580D01*
X106190476Y-39359580D02*
X106238095Y-39264342D01*
X106238095Y-39264342D02*
X106238095Y-39169104D01*
X106238095Y-39169104D02*
X106190476Y-39073866D01*
X106190476Y-39073866D02*
X106142857Y-39026247D01*
X106142857Y-39026247D02*
X106047619Y-38978628D01*
X106047619Y-38978628D02*
X105857143Y-38931009D01*
X105857143Y-38931009D02*
X105761905Y-38883390D01*
X105761905Y-38883390D02*
X105714286Y-38835771D01*
X105714286Y-38835771D02*
X105666667Y-38740533D01*
X105666667Y-38740533D02*
X105666667Y-38645295D01*
X105666667Y-38645295D02*
X105714286Y-38550057D01*
X105714286Y-38550057D02*
X105761905Y-38502438D01*
X105761905Y-38502438D02*
X105857143Y-38454819D01*
X105857143Y-38454819D02*
X106095238Y-38454819D01*
X106095238Y-38454819D02*
X106238095Y-38502438D01*
X106571429Y-38454819D02*
X106809524Y-39454819D01*
X106809524Y-39454819D02*
X107000000Y-38740533D01*
X107000000Y-38740533D02*
X107190476Y-39454819D01*
X107190476Y-39454819D02*
X107428572Y-38454819D01*
X108333333Y-39454819D02*
X107761905Y-39454819D01*
X108047619Y-39454819D02*
X108047619Y-38454819D01*
X108047619Y-38454819D02*
X107952381Y-38597676D01*
X107952381Y-38597676D02*
X107857143Y-38692914D01*
X107857143Y-38692914D02*
X107761905Y-38740533D01*
X96238095Y-54104819D02*
X96238095Y-53104819D01*
X96238095Y-53581009D02*
X96809523Y-53581009D01*
X96809523Y-54104819D02*
X96809523Y-53104819D01*
X97238095Y-53200057D02*
X97285714Y-53152438D01*
X97285714Y-53152438D02*
X97380952Y-53104819D01*
X97380952Y-53104819D02*
X97619047Y-53104819D01*
X97619047Y-53104819D02*
X97714285Y-53152438D01*
X97714285Y-53152438D02*
X97761904Y-53200057D01*
X97761904Y-53200057D02*
X97809523Y-53295295D01*
X97809523Y-53295295D02*
X97809523Y-53390533D01*
X97809523Y-53390533D02*
X97761904Y-53533390D01*
X97761904Y-53533390D02*
X97190476Y-54104819D01*
X97190476Y-54104819D02*
X97809523Y-54104819D01*
X125086667Y-39407200D02*
X125229524Y-39454819D01*
X125229524Y-39454819D02*
X125467619Y-39454819D01*
X125467619Y-39454819D02*
X125562857Y-39407200D01*
X125562857Y-39407200D02*
X125610476Y-39359580D01*
X125610476Y-39359580D02*
X125658095Y-39264342D01*
X125658095Y-39264342D02*
X125658095Y-39169104D01*
X125658095Y-39169104D02*
X125610476Y-39073866D01*
X125610476Y-39073866D02*
X125562857Y-39026247D01*
X125562857Y-39026247D02*
X125467619Y-38978628D01*
X125467619Y-38978628D02*
X125277143Y-38931009D01*
X125277143Y-38931009D02*
X125181905Y-38883390D01*
X125181905Y-38883390D02*
X125134286Y-38835771D01*
X125134286Y-38835771D02*
X125086667Y-38740533D01*
X125086667Y-38740533D02*
X125086667Y-38645295D01*
X125086667Y-38645295D02*
X125134286Y-38550057D01*
X125134286Y-38550057D02*
X125181905Y-38502438D01*
X125181905Y-38502438D02*
X125277143Y-38454819D01*
X125277143Y-38454819D02*
X125515238Y-38454819D01*
X125515238Y-38454819D02*
X125658095Y-38502438D01*
X125991429Y-38454819D02*
X126229524Y-39454819D01*
X126229524Y-39454819D02*
X126420000Y-38740533D01*
X126420000Y-38740533D02*
X126610476Y-39454819D01*
X126610476Y-39454819D02*
X126848572Y-38454819D01*
X127181905Y-38550057D02*
X127229524Y-38502438D01*
X127229524Y-38502438D02*
X127324762Y-38454819D01*
X127324762Y-38454819D02*
X127562857Y-38454819D01*
X127562857Y-38454819D02*
X127658095Y-38502438D01*
X127658095Y-38502438D02*
X127705714Y-38550057D01*
X127705714Y-38550057D02*
X127753333Y-38645295D01*
X127753333Y-38645295D02*
X127753333Y-38740533D01*
X127753333Y-38740533D02*
X127705714Y-38883390D01*
X127705714Y-38883390D02*
X127134286Y-39454819D01*
X127134286Y-39454819D02*
X127753333Y-39454819D01*
X135408492Y-39454819D02*
X135408492Y-38454819D01*
X135408492Y-38931009D02*
X135979920Y-38931009D01*
X135979920Y-39454819D02*
X135979920Y-38454819D01*
X136360873Y-38454819D02*
X136979920Y-38454819D01*
X136979920Y-38454819D02*
X136646587Y-38835771D01*
X136646587Y-38835771D02*
X136789444Y-38835771D01*
X136789444Y-38835771D02*
X136884682Y-38883390D01*
X136884682Y-38883390D02*
X136932301Y-38931009D01*
X136932301Y-38931009D02*
X136979920Y-39026247D01*
X136979920Y-39026247D02*
X136979920Y-39264342D01*
X136979920Y-39264342D02*
X136932301Y-39359580D01*
X136932301Y-39359580D02*
X136884682Y-39407200D01*
X136884682Y-39407200D02*
X136789444Y-39454819D01*
X136789444Y-39454819D02*
X136503730Y-39454819D01*
X136503730Y-39454819D02*
X136408492Y-39407200D01*
X136408492Y-39407200D02*
X136360873Y-39359580D01*
%TO.C,SW3*%
D12*
X138980000Y-39900000D02*
X138980000Y-54100000D01*
X138980000Y-54100000D02*
X153180000Y-54100000D01*
X153180000Y-39900000D02*
X138980000Y-39900000D01*
X153180000Y-54100000D02*
X153180000Y-39900000D01*
D13*
%TO.C,REF\u002A\u002A*%
X171335690Y-44440018D02*
X171370585Y-44455269D01*
X171453877Y-44521235D01*
X171525103Y-44616618D01*
X171569153Y-44718406D01*
X171576322Y-44768587D01*
X171552285Y-44838647D01*
X171499561Y-44875717D01*
X171443031Y-44898164D01*
X171417146Y-44902300D01*
X171404542Y-44872283D01*
X171379654Y-44806961D01*
X171368735Y-44777445D01*
X171307508Y-44675348D01*
X171218861Y-44624423D01*
X171105193Y-44625989D01*
X171096774Y-44627994D01*
X171036088Y-44656767D01*
X170991474Y-44712859D01*
X170961002Y-44803163D01*
X170942744Y-44934571D01*
X170934771Y-45113974D01*
X170934023Y-45209433D01*
X170933652Y-45359913D01*
X170931223Y-45462495D01*
X170924760Y-45527672D01*
X170912288Y-45565938D01*
X170891833Y-45587785D01*
X170861419Y-45603707D01*
X170859661Y-45604509D01*
X170801091Y-45629272D01*
X170772075Y-45638391D01*
X170767616Y-45610822D01*
X170763799Y-45534620D01*
X170760899Y-45419541D01*
X170759191Y-45275341D01*
X170758851Y-45169814D01*
X170760588Y-44965613D01*
X170767382Y-44810697D01*
X170781607Y-44696024D01*
X170805638Y-44612551D01*
X170841848Y-44551236D01*
X170892612Y-44503034D01*
X170942739Y-44469393D01*
X171063275Y-44424619D01*
X171203557Y-44414521D01*
X171335690Y-44440018D01*
G36*
X171335690Y-44440018D02*
G01*
X171370585Y-44455269D01*
X171453877Y-44521235D01*
X171525103Y-44616618D01*
X171569153Y-44718406D01*
X171576322Y-44768587D01*
X171552285Y-44838647D01*
X171499561Y-44875717D01*
X171443031Y-44898164D01*
X171417146Y-44902300D01*
X171404542Y-44872283D01*
X171379654Y-44806961D01*
X171368735Y-44777445D01*
X171307508Y-44675348D01*
X171218861Y-44624423D01*
X171105193Y-44625989D01*
X171096774Y-44627994D01*
X171036088Y-44656767D01*
X170991474Y-44712859D01*
X170961002Y-44803163D01*
X170942744Y-44934571D01*
X170934771Y-45113974D01*
X170934023Y-45209433D01*
X170933652Y-45359913D01*
X170931223Y-45462495D01*
X170924760Y-45527672D01*
X170912288Y-45565938D01*
X170891833Y-45587785D01*
X170861419Y-45603707D01*
X170859661Y-45604509D01*
X170801091Y-45629272D01*
X170772075Y-45638391D01*
X170767616Y-45610822D01*
X170763799Y-45534620D01*
X170760899Y-45419541D01*
X170759191Y-45275341D01*
X170758851Y-45169814D01*
X170760588Y-44965613D01*
X170767382Y-44810697D01*
X170781607Y-44696024D01*
X170805638Y-44612551D01*
X170841848Y-44551236D01*
X170892612Y-44503034D01*
X170942739Y-44469393D01*
X171063275Y-44424619D01*
X171203557Y-44414521D01*
X171335690Y-44440018D01*
G37*
X163417429Y-44377719D02*
X163511123Y-44431914D01*
X163576264Y-44485707D01*
X163623907Y-44542066D01*
X163656728Y-44610987D01*
X163677406Y-44702468D01*
X163688620Y-44826506D01*
X163693049Y-44993098D01*
X163693563Y-45112851D01*
X163693563Y-45553659D01*
X163569483Y-45609283D01*
X163445402Y-45664907D01*
X163430805Y-45182095D01*
X163424773Y-45001779D01*
X163418445Y-44870901D01*
X163410606Y-44780511D01*
X163400037Y-44721664D01*
X163385523Y-44685413D01*
X163365848Y-44662810D01*
X163359535Y-44657917D01*
X163263888Y-44619706D01*
X163167207Y-44634827D01*
X163109655Y-44674943D01*
X163086245Y-44703370D01*
X163070039Y-44740672D01*
X163059741Y-44797223D01*
X163054049Y-44883394D01*
X163051664Y-45009558D01*
X163051264Y-45141042D01*
X163051186Y-45305999D01*
X163048361Y-45422761D01*
X163038907Y-45501510D01*
X163018940Y-45552431D01*
X162984576Y-45585706D01*
X162931932Y-45611520D01*
X162861617Y-45638344D01*
X162784820Y-45667542D01*
X162793962Y-45149346D01*
X162797643Y-44962539D01*
X162801950Y-44824490D01*
X162808123Y-44725568D01*
X162817402Y-44656145D01*
X162831027Y-44606590D01*
X162850239Y-44567273D01*
X162873402Y-44532584D01*
X162985152Y-44421770D01*
X163121513Y-44357689D01*
X163269825Y-44342339D01*
X163417429Y-44377719D01*
G36*
X163417429Y-44377719D02*
G01*
X163511123Y-44431914D01*
X163576264Y-44485707D01*
X163623907Y-44542066D01*
X163656728Y-44610987D01*
X163677406Y-44702468D01*
X163688620Y-44826506D01*
X163693049Y-44993098D01*
X163693563Y-45112851D01*
X163693563Y-45553659D01*
X163569483Y-45609283D01*
X163445402Y-45664907D01*
X163430805Y-45182095D01*
X163424773Y-45001779D01*
X163418445Y-44870901D01*
X163410606Y-44780511D01*
X163400037Y-44721664D01*
X163385523Y-44685413D01*
X163365848Y-44662810D01*
X163359535Y-44657917D01*
X163263888Y-44619706D01*
X163167207Y-44634827D01*
X163109655Y-44674943D01*
X163086245Y-44703370D01*
X163070039Y-44740672D01*
X163059741Y-44797223D01*
X163054049Y-44883394D01*
X163051664Y-45009558D01*
X163051264Y-45141042D01*
X163051186Y-45305999D01*
X163048361Y-45422761D01*
X163038907Y-45501510D01*
X163018940Y-45552431D01*
X162984576Y-45585706D01*
X162931932Y-45611520D01*
X162861617Y-45638344D01*
X162784820Y-45667542D01*
X162793962Y-45149346D01*
X162797643Y-44962539D01*
X162801950Y-44824490D01*
X162808123Y-44725568D01*
X162817402Y-44656145D01*
X162831027Y-44606590D01*
X162850239Y-44567273D01*
X162873402Y-44532584D01*
X162985152Y-44421770D01*
X163121513Y-44357689D01*
X163269825Y-44342339D01*
X163417429Y-44377719D01*
G37*
X167065943Y-44421920D02*
X167198565Y-44470859D01*
X167306010Y-44557419D01*
X167348032Y-44618352D01*
X167393843Y-44730161D01*
X167392891Y-44811006D01*
X167344808Y-44865378D01*
X167327017Y-44874624D01*
X167250204Y-44903450D01*
X167210976Y-44896065D01*
X167197689Y-44847658D01*
X167197012Y-44820920D01*
X167172686Y-44722548D01*
X167109281Y-44653734D01*
X167021154Y-44620498D01*
X166922663Y-44628861D01*
X166842602Y-44672296D01*
X166815561Y-44697072D01*
X166796394Y-44727129D01*
X166783446Y-44772565D01*
X166775064Y-44843476D01*
X166769593Y-44949960D01*
X166765378Y-45102112D01*
X166764287Y-45150287D01*
X166760307Y-45315095D01*
X166755781Y-45431088D01*
X166748995Y-45507833D01*
X166738231Y-45554893D01*
X166721773Y-45581835D01*
X166697906Y-45598223D01*
X166682626Y-45605463D01*
X166617733Y-45630220D01*
X166579534Y-45638391D01*
X166566912Y-45611103D01*
X166559208Y-45528603D01*
X166556380Y-45389941D01*
X166558386Y-45194162D01*
X166559011Y-45163965D01*
X166563421Y-44985349D01*
X166568635Y-44854923D01*
X166576055Y-44762492D01*
X166587082Y-44697858D01*
X166603117Y-44650825D01*
X166625561Y-44611196D01*
X166637302Y-44594215D01*
X166704619Y-44519080D01*
X166779910Y-44460638D01*
X166789128Y-44455536D01*
X166924133Y-44415260D01*
X167065943Y-44421920D01*
G36*
X167065943Y-44421920D02*
G01*
X167198565Y-44470859D01*
X167306010Y-44557419D01*
X167348032Y-44618352D01*
X167393843Y-44730161D01*
X167392891Y-44811006D01*
X167344808Y-44865378D01*
X167327017Y-44874624D01*
X167250204Y-44903450D01*
X167210976Y-44896065D01*
X167197689Y-44847658D01*
X167197012Y-44820920D01*
X167172686Y-44722548D01*
X167109281Y-44653734D01*
X167021154Y-44620498D01*
X166922663Y-44628861D01*
X166842602Y-44672296D01*
X166815561Y-44697072D01*
X166796394Y-44727129D01*
X166783446Y-44772565D01*
X166775064Y-44843476D01*
X166769593Y-44949960D01*
X166765378Y-45102112D01*
X166764287Y-45150287D01*
X166760307Y-45315095D01*
X166755781Y-45431088D01*
X166748995Y-45507833D01*
X166738231Y-45554893D01*
X166721773Y-45581835D01*
X166697906Y-45598223D01*
X166682626Y-45605463D01*
X166617733Y-45630220D01*
X166579534Y-45638391D01*
X166566912Y-45611103D01*
X166559208Y-45528603D01*
X166556380Y-45389941D01*
X166558386Y-45194162D01*
X166559011Y-45163965D01*
X166563421Y-44985349D01*
X166568635Y-44854923D01*
X166576055Y-44762492D01*
X166587082Y-44697858D01*
X166603117Y-44650825D01*
X166625561Y-44611196D01*
X166637302Y-44594215D01*
X166704619Y-44519080D01*
X166779910Y-44460638D01*
X166789128Y-44455536D01*
X166924133Y-44415260D01*
X167065943Y-44421920D01*
G37*
X169580124Y-44439840D02*
X169584579Y-44516653D01*
X169588071Y-44633391D01*
X169590315Y-44780821D01*
X169591035Y-44935455D01*
X169591035Y-45458727D01*
X169498645Y-45551117D01*
X169434978Y-45608047D01*
X169379089Y-45631107D01*
X169302702Y-45629647D01*
X169272380Y-45625934D01*
X169177610Y-45615126D01*
X169099222Y-45608933D01*
X169080115Y-45608361D01*
X169015699Y-45612102D01*
X168923571Y-45621494D01*
X168887850Y-45625934D01*
X168800114Y-45632801D01*
X168741153Y-45617885D01*
X168682690Y-45571835D01*
X168661585Y-45551117D01*
X168569195Y-45458727D01*
X168569195Y-44479947D01*
X168643558Y-44446066D01*
X168707590Y-44420970D01*
X168745052Y-44412184D01*
X168754657Y-44439950D01*
X168763635Y-44517530D01*
X168771386Y-44636348D01*
X168777314Y-44787828D01*
X168780173Y-44915805D01*
X168788161Y-45419425D01*
X168857848Y-45429278D01*
X168921229Y-45422389D01*
X168952286Y-45400083D01*
X168960967Y-45358379D01*
X168968378Y-45269544D01*
X168973931Y-45144834D01*
X168977036Y-44995507D01*
X168977484Y-44918661D01*
X168977931Y-44476287D01*
X169069874Y-44444235D01*
X169134949Y-44422443D01*
X169170347Y-44412281D01*
X169171368Y-44412184D01*
X169174920Y-44439809D01*
X169178823Y-44516411D01*
X169182751Y-44632579D01*
X169186376Y-44778904D01*
X169188908Y-44915805D01*
X169196897Y-45419425D01*
X169372069Y-45419425D01*
X169380107Y-44959965D01*
X169388146Y-44500505D01*
X169473543Y-44456344D01*
X169536593Y-44426019D01*
X169573910Y-44412258D01*
X169574987Y-44412184D01*
X169580124Y-44439840D01*
G36*
X169580124Y-44439840D02*
G01*
X169584579Y-44516653D01*
X169588071Y-44633391D01*
X169590315Y-44780821D01*
X169591035Y-44935455D01*
X169591035Y-45458727D01*
X169498645Y-45551117D01*
X169434978Y-45608047D01*
X169379089Y-45631107D01*
X169302702Y-45629647D01*
X169272380Y-45625934D01*
X169177610Y-45615126D01*
X169099222Y-45608933D01*
X169080115Y-45608361D01*
X169015699Y-45612102D01*
X168923571Y-45621494D01*
X168887850Y-45625934D01*
X168800114Y-45632801D01*
X168741153Y-45617885D01*
X168682690Y-45571835D01*
X168661585Y-45551117D01*
X168569195Y-45458727D01*
X168569195Y-44479947D01*
X168643558Y-44446066D01*
X168707590Y-44420970D01*
X168745052Y-44412184D01*
X168754657Y-44439950D01*
X168763635Y-44517530D01*
X168771386Y-44636348D01*
X168777314Y-44787828D01*
X168780173Y-44915805D01*
X168788161Y-45419425D01*
X168857848Y-45429278D01*
X168921229Y-45422389D01*
X168952286Y-45400083D01*
X168960967Y-45358379D01*
X168968378Y-45269544D01*
X168973931Y-45144834D01*
X168977036Y-44995507D01*
X168977484Y-44918661D01*
X168977931Y-44476287D01*
X169069874Y-44444235D01*
X169134949Y-44422443D01*
X169170347Y-44412281D01*
X169171368Y-44412184D01*
X169174920Y-44439809D01*
X169178823Y-44516411D01*
X169182751Y-44632579D01*
X169186376Y-44778904D01*
X169188908Y-44915805D01*
X169196897Y-45419425D01*
X169372069Y-45419425D01*
X169380107Y-44959965D01*
X169388146Y-44500505D01*
X169473543Y-44456344D01*
X169536593Y-44426019D01*
X169573910Y-44412258D01*
X169574987Y-44412184D01*
X169580124Y-44439840D01*
G37*
X164744598Y-44223857D02*
X164753154Y-44343188D01*
X164762981Y-44413506D01*
X164776599Y-44444179D01*
X164796527Y-44444571D01*
X164802989Y-44440910D01*
X164888940Y-44414398D01*
X165000745Y-44415946D01*
X165114414Y-44443199D01*
X165185510Y-44478455D01*
X165258405Y-44534778D01*
X165311693Y-44598519D01*
X165348275Y-44679510D01*
X165371050Y-44787586D01*
X165382919Y-44932580D01*
X165386782Y-45124326D01*
X165386851Y-45161109D01*
X165386897Y-45574288D01*
X165294954Y-45606339D01*
X165229652Y-45628144D01*
X165193824Y-45638297D01*
X165192770Y-45638391D01*
X165189242Y-45610860D01*
X165186239Y-45534923D01*
X165183990Y-45420565D01*
X165182724Y-45277769D01*
X165182529Y-45190951D01*
X165182123Y-45019773D01*
X165180032Y-44897088D01*
X165174947Y-44813000D01*
X165165560Y-44757614D01*
X165150561Y-44721032D01*
X165128642Y-44693359D01*
X165114957Y-44680032D01*
X165020949Y-44626328D01*
X164918364Y-44622307D01*
X164825290Y-44667725D01*
X164808078Y-44684123D01*
X164782832Y-44714957D01*
X164765320Y-44751531D01*
X164754142Y-44804415D01*
X164747896Y-44884177D01*
X164745182Y-45001385D01*
X164744598Y-45162991D01*
X164744598Y-45574288D01*
X164652655Y-45606339D01*
X164587353Y-45628144D01*
X164551525Y-45638297D01*
X164550471Y-45638391D01*
X164547775Y-45610448D01*
X164545345Y-45531630D01*
X164543278Y-45409453D01*
X164541671Y-45251432D01*
X164540623Y-45065083D01*
X164540231Y-44857920D01*
X164540230Y-44848706D01*
X164540230Y-44059020D01*
X164635115Y-44018997D01*
X164730000Y-43978973D01*
X164744598Y-44223857D01*
G36*
X164744598Y-44223857D02*
G01*
X164753154Y-44343188D01*
X164762981Y-44413506D01*
X164776599Y-44444179D01*
X164796527Y-44444571D01*
X164802989Y-44440910D01*
X164888940Y-44414398D01*
X165000745Y-44415946D01*
X165114414Y-44443199D01*
X165185510Y-44478455D01*
X165258405Y-44534778D01*
X165311693Y-44598519D01*
X165348275Y-44679510D01*
X165371050Y-44787586D01*
X165382919Y-44932580D01*
X165386782Y-45124326D01*
X165386851Y-45161109D01*
X165386897Y-45574288D01*
X165294954Y-45606339D01*
X165229652Y-45628144D01*
X165193824Y-45638297D01*
X165192770Y-45638391D01*
X165189242Y-45610860D01*
X165186239Y-45534923D01*
X165183990Y-45420565D01*
X165182724Y-45277769D01*
X165182529Y-45190951D01*
X165182123Y-45019773D01*
X165180032Y-44897088D01*
X165174947Y-44813000D01*
X165165560Y-44757614D01*
X165150561Y-44721032D01*
X165128642Y-44693359D01*
X165114957Y-44680032D01*
X165020949Y-44626328D01*
X164918364Y-44622307D01*
X164825290Y-44667725D01*
X164808078Y-44684123D01*
X164782832Y-44714957D01*
X164765320Y-44751531D01*
X164754142Y-44804415D01*
X164747896Y-44884177D01*
X164745182Y-45001385D01*
X164744598Y-45162991D01*
X164744598Y-45574288D01*
X164652655Y-45606339D01*
X164587353Y-45628144D01*
X164551525Y-45638297D01*
X164550471Y-45638391D01*
X164547775Y-45610448D01*
X164545345Y-45531630D01*
X164543278Y-45409453D01*
X164541671Y-45251432D01*
X164540623Y-45065083D01*
X164540231Y-44857920D01*
X164540230Y-44848706D01*
X164540230Y-44059020D01*
X164635115Y-44018997D01*
X164730000Y-43978973D01*
X164744598Y-44223857D01*
G37*
X160048221Y-44366015D02*
X160185061Y-44437968D01*
X160286051Y-44553766D01*
X160321925Y-44628213D01*
X160349839Y-44739992D01*
X160364129Y-44881227D01*
X160365484Y-45035371D01*
X160354595Y-45185879D01*
X160332153Y-45316205D01*
X160298850Y-45409803D01*
X160288615Y-45425922D01*
X160167382Y-45546249D01*
X160023387Y-45618317D01*
X159867139Y-45639408D01*
X159709148Y-45606802D01*
X159665180Y-45587253D01*
X159579556Y-45527012D01*
X159504408Y-45447135D01*
X159497306Y-45437004D01*
X159468439Y-45388181D01*
X159449357Y-45335990D01*
X159438084Y-45267285D01*
X159432645Y-45168918D01*
X159431062Y-45027744D01*
X159431035Y-44996092D01*
X159431107Y-44986019D01*
X159722989Y-44986019D01*
X159724687Y-45119256D01*
X159731372Y-45207674D01*
X159745425Y-45264785D01*
X159769229Y-45304102D01*
X159781379Y-45317241D01*
X159851236Y-45367172D01*
X159919059Y-45364895D01*
X159987635Y-45321584D01*
X160028535Y-45275346D01*
X160052758Y-45207857D01*
X160066361Y-45101433D01*
X160067294Y-45089020D01*
X160069616Y-44896147D01*
X160045350Y-44752900D01*
X159994824Y-44660160D01*
X159918368Y-44618807D01*
X159891076Y-44616552D01*
X159819411Y-44627893D01*
X159770390Y-44667184D01*
X159740418Y-44742326D01*
X159725899Y-44861222D01*
X159722989Y-44986019D01*
X159431107Y-44986019D01*
X159432122Y-44845659D01*
X159436688Y-44740549D01*
X159446688Y-44667714D01*
X159464079Y-44614108D01*
X159490816Y-44566681D01*
X159496724Y-44557864D01*
X159596032Y-44439007D01*
X159704242Y-44370008D01*
X159835981Y-44342619D01*
X159880717Y-44341281D01*
X160048221Y-44366015D01*
G36*
X160048221Y-44366015D02*
G01*
X160185061Y-44437968D01*
X160286051Y-44553766D01*
X160321925Y-44628213D01*
X160349839Y-44739992D01*
X160364129Y-44881227D01*
X160365484Y-45035371D01*
X160354595Y-45185879D01*
X160332153Y-45316205D01*
X160298850Y-45409803D01*
X160288615Y-45425922D01*
X160167382Y-45546249D01*
X160023387Y-45618317D01*
X159867139Y-45639408D01*
X159709148Y-45606802D01*
X159665180Y-45587253D01*
X159579556Y-45527012D01*
X159504408Y-45447135D01*
X159497306Y-45437004D01*
X159468439Y-45388181D01*
X159449357Y-45335990D01*
X159438084Y-45267285D01*
X159432645Y-45168918D01*
X159431062Y-45027744D01*
X159431035Y-44996092D01*
X159431107Y-44986019D01*
X159722989Y-44986019D01*
X159724687Y-45119256D01*
X159731372Y-45207674D01*
X159745425Y-45264785D01*
X159769229Y-45304102D01*
X159781379Y-45317241D01*
X159851236Y-45367172D01*
X159919059Y-45364895D01*
X159987635Y-45321584D01*
X160028535Y-45275346D01*
X160052758Y-45207857D01*
X160066361Y-45101433D01*
X160067294Y-45089020D01*
X160069616Y-44896147D01*
X160045350Y-44752900D01*
X159994824Y-44660160D01*
X159918368Y-44618807D01*
X159891076Y-44616552D01*
X159819411Y-44627893D01*
X159770390Y-44667184D01*
X159740418Y-44742326D01*
X159725899Y-44861222D01*
X159722989Y-44986019D01*
X159431107Y-44986019D01*
X159432122Y-44845659D01*
X159436688Y-44740549D01*
X159446688Y-44667714D01*
X159464079Y-44614108D01*
X159490816Y-44566681D01*
X159496724Y-44557864D01*
X159596032Y-44439007D01*
X159704242Y-44370008D01*
X159835981Y-44342619D01*
X159880717Y-44341281D01*
X160048221Y-44366015D01*
G37*
X172343439Y-44456540D02*
X172458950Y-44532034D01*
X172514664Y-44599617D01*
X172558804Y-44722255D01*
X172562309Y-44819298D01*
X172554368Y-44949056D01*
X172255115Y-45080039D01*
X172109611Y-45146958D01*
X172014537Y-45200790D01*
X171965101Y-45247416D01*
X171956511Y-45292720D01*
X171983972Y-45342582D01*
X172014253Y-45375632D01*
X172102363Y-45428633D01*
X172198196Y-45432347D01*
X172286212Y-45391041D01*
X172350869Y-45308983D01*
X172362433Y-45280008D01*
X172417825Y-45189509D01*
X172481553Y-45150940D01*
X172568966Y-45117946D01*
X172568966Y-45243034D01*
X172561238Y-45328156D01*
X172530966Y-45399938D01*
X172467518Y-45482356D01*
X172458088Y-45493066D01*
X172387513Y-45566391D01*
X172326847Y-45605742D01*
X172250950Y-45623845D01*
X172188030Y-45629774D01*
X172075487Y-45631251D01*
X171995370Y-45612535D01*
X171945390Y-45584747D01*
X171866838Y-45523641D01*
X171812463Y-45457554D01*
X171778052Y-45374441D01*
X171759388Y-45262254D01*
X171752256Y-45108946D01*
X171751687Y-45031136D01*
X171753622Y-44937853D01*
X171929899Y-44937853D01*
X171931944Y-44987896D01*
X171937039Y-44996092D01*
X171970666Y-44984958D01*
X172043030Y-44955493D01*
X172139747Y-44913601D01*
X172159973Y-44904597D01*
X172282203Y-44842442D01*
X172349547Y-44787815D01*
X172364348Y-44736649D01*
X172328947Y-44684876D01*
X172299711Y-44662000D01*
X172194216Y-44616250D01*
X172095476Y-44623808D01*
X172012812Y-44679651D01*
X171955548Y-44778753D01*
X171937188Y-44857414D01*
X171929899Y-44937853D01*
X171753622Y-44937853D01*
X171755459Y-44849351D01*
X171769359Y-44714853D01*
X171796894Y-44616916D01*
X171841572Y-44544811D01*
X171906901Y-44487813D01*
X171935383Y-44469393D01*
X172064763Y-44421422D01*
X172206412Y-44418403D01*
X172343439Y-44456540D01*
G36*
X172343439Y-44456540D02*
G01*
X172458950Y-44532034D01*
X172514664Y-44599617D01*
X172558804Y-44722255D01*
X172562309Y-44819298D01*
X172554368Y-44949056D01*
X172255115Y-45080039D01*
X172109611Y-45146958D01*
X172014537Y-45200790D01*
X171965101Y-45247416D01*
X171956511Y-45292720D01*
X171983972Y-45342582D01*
X172014253Y-45375632D01*
X172102363Y-45428633D01*
X172198196Y-45432347D01*
X172286212Y-45391041D01*
X172350869Y-45308983D01*
X172362433Y-45280008D01*
X172417825Y-45189509D01*
X172481553Y-45150940D01*
X172568966Y-45117946D01*
X172568966Y-45243034D01*
X172561238Y-45328156D01*
X172530966Y-45399938D01*
X172467518Y-45482356D01*
X172458088Y-45493066D01*
X172387513Y-45566391D01*
X172326847Y-45605742D01*
X172250950Y-45623845D01*
X172188030Y-45629774D01*
X172075487Y-45631251D01*
X171995370Y-45612535D01*
X171945390Y-45584747D01*
X171866838Y-45523641D01*
X171812463Y-45457554D01*
X171778052Y-45374441D01*
X171759388Y-45262254D01*
X171752256Y-45108946D01*
X171751687Y-45031136D01*
X171753622Y-44937853D01*
X171929899Y-44937853D01*
X171931944Y-44987896D01*
X171937039Y-44996092D01*
X171970666Y-44984958D01*
X172043030Y-44955493D01*
X172139747Y-44913601D01*
X172159973Y-44904597D01*
X172282203Y-44842442D01*
X172349547Y-44787815D01*
X172364348Y-44736649D01*
X172328947Y-44684876D01*
X172299711Y-44662000D01*
X172194216Y-44616250D01*
X172095476Y-44623808D01*
X172012812Y-44679651D01*
X171955548Y-44778753D01*
X171937188Y-44857414D01*
X171929899Y-44937853D01*
X171753622Y-44937853D01*
X171755459Y-44849351D01*
X171769359Y-44714853D01*
X171796894Y-44616916D01*
X171841572Y-44544811D01*
X171906901Y-44487813D01*
X171935383Y-44469393D01*
X172064763Y-44421422D01*
X172206412Y-44418403D01*
X172343439Y-44456540D01*
G37*
X168393914Y-44654455D02*
X168393543Y-44872661D01*
X168392108Y-45040519D01*
X168389002Y-45166070D01*
X168383622Y-45257355D01*
X168375362Y-45322415D01*
X168363616Y-45369291D01*
X168347781Y-45406024D01*
X168335790Y-45426991D01*
X168236490Y-45540694D01*
X168110588Y-45611965D01*
X167971291Y-45637538D01*
X167831805Y-45614150D01*
X167748743Y-45572119D01*
X167661545Y-45499411D01*
X167602117Y-45410612D01*
X167566261Y-45294320D01*
X167549781Y-45139135D01*
X167547447Y-45025287D01*
X167547761Y-45017106D01*
X167751724Y-45017106D01*
X167752970Y-45147657D01*
X167758678Y-45234080D01*
X167771804Y-45290618D01*
X167795306Y-45331514D01*
X167823386Y-45362362D01*
X167917688Y-45421905D01*
X168018940Y-45426992D01*
X168114636Y-45377279D01*
X168122084Y-45370543D01*
X168153874Y-45335502D01*
X168173808Y-45293811D01*
X168184600Y-45231762D01*
X168188965Y-45135644D01*
X168189655Y-45029379D01*
X168188159Y-44895880D01*
X168181964Y-44806822D01*
X168168514Y-44748293D01*
X168145251Y-44706382D01*
X168126175Y-44684123D01*
X168037563Y-44627985D01*
X167935508Y-44621235D01*
X167838095Y-44664114D01*
X167819296Y-44680032D01*
X167787293Y-44715382D01*
X167767318Y-44757502D01*
X167756593Y-44820251D01*
X167752339Y-44917487D01*
X167751724Y-45017106D01*
X167547761Y-45017106D01*
X167554504Y-44841947D01*
X167578472Y-44704195D01*
X167623548Y-44600632D01*
X167693928Y-44519856D01*
X167748743Y-44478455D01*
X167848376Y-44433728D01*
X167963855Y-44412967D01*
X168071199Y-44418525D01*
X168131264Y-44440943D01*
X168154835Y-44447323D01*
X168170477Y-44423535D01*
X168181395Y-44359788D01*
X168189655Y-44262687D01*
X168198699Y-44154541D01*
X168211261Y-44089475D01*
X168234119Y-44052268D01*
X168274051Y-44027699D01*
X168299138Y-44016819D01*
X168394023Y-43977072D01*
X168393914Y-44654455D01*
G36*
X168393914Y-44654455D02*
G01*
X168393543Y-44872661D01*
X168392108Y-45040519D01*
X168389002Y-45166070D01*
X168383622Y-45257355D01*
X168375362Y-45322415D01*
X168363616Y-45369291D01*
X168347781Y-45406024D01*
X168335790Y-45426991D01*
X168236490Y-45540694D01*
X168110588Y-45611965D01*
X167971291Y-45637538D01*
X167831805Y-45614150D01*
X167748743Y-45572119D01*
X167661545Y-45499411D01*
X167602117Y-45410612D01*
X167566261Y-45294320D01*
X167549781Y-45139135D01*
X167547447Y-45025287D01*
X167547761Y-45017106D01*
X167751724Y-45017106D01*
X167752970Y-45147657D01*
X167758678Y-45234080D01*
X167771804Y-45290618D01*
X167795306Y-45331514D01*
X167823386Y-45362362D01*
X167917688Y-45421905D01*
X168018940Y-45426992D01*
X168114636Y-45377279D01*
X168122084Y-45370543D01*
X168153874Y-45335502D01*
X168173808Y-45293811D01*
X168184600Y-45231762D01*
X168188965Y-45135644D01*
X168189655Y-45029379D01*
X168188159Y-44895880D01*
X168181964Y-44806822D01*
X168168514Y-44748293D01*
X168145251Y-44706382D01*
X168126175Y-44684123D01*
X168037563Y-44627985D01*
X167935508Y-44621235D01*
X167838095Y-44664114D01*
X167819296Y-44680032D01*
X167787293Y-44715382D01*
X167767318Y-44757502D01*
X167756593Y-44820251D01*
X167752339Y-44917487D01*
X167751724Y-45017106D01*
X167547761Y-45017106D01*
X167554504Y-44841947D01*
X167578472Y-44704195D01*
X167623548Y-44600632D01*
X167693928Y-44519856D01*
X167748743Y-44478455D01*
X167848376Y-44433728D01*
X167963855Y-44412967D01*
X168071199Y-44418525D01*
X168131264Y-44440943D01*
X168154835Y-44447323D01*
X168170477Y-44423535D01*
X168181395Y-44359788D01*
X168189655Y-44262687D01*
X168198699Y-44154541D01*
X168211261Y-44089475D01*
X168234119Y-44052268D01*
X168274051Y-44027699D01*
X168299138Y-44016819D01*
X168394023Y-43977072D01*
X168393914Y-44654455D01*
G37*
X162315552Y-44384676D02*
X162430658Y-44462111D01*
X162519611Y-44573949D01*
X162572749Y-44716265D01*
X162583497Y-44821015D01*
X162582276Y-44864726D01*
X162572056Y-44898194D01*
X162543961Y-44928179D01*
X162489116Y-44961440D01*
X162398645Y-45004738D01*
X162263672Y-45064833D01*
X162262989Y-45065134D01*
X162138751Y-45122037D01*
X162036873Y-45172565D01*
X161967767Y-45211280D01*
X161941846Y-45232740D01*
X161941839Y-45232913D01*
X161964685Y-45279644D01*
X162018109Y-45331154D01*
X162079442Y-45368261D01*
X162110515Y-45375632D01*
X162195289Y-45350138D01*
X162268293Y-45286291D01*
X162303913Y-45216094D01*
X162338180Y-45164343D01*
X162405303Y-45105409D01*
X162484208Y-45054496D01*
X162553821Y-45026809D01*
X162568377Y-45025287D01*
X162584763Y-45050321D01*
X162585750Y-45114311D01*
X162573708Y-45200593D01*
X162551007Y-45292501D01*
X162520014Y-45373369D01*
X162518448Y-45376509D01*
X162425181Y-45506734D01*
X162304304Y-45595311D01*
X162167027Y-45638786D01*
X162024560Y-45633706D01*
X161888112Y-45576616D01*
X161882045Y-45572602D01*
X161774710Y-45475326D01*
X161704132Y-45348409D01*
X161665074Y-45181526D01*
X161659832Y-45134639D01*
X161650548Y-44913329D01*
X161661678Y-44810124D01*
X161941839Y-44810124D01*
X161945479Y-44874503D01*
X161965389Y-44893291D01*
X162015026Y-44879235D01*
X162093267Y-44846009D01*
X162180726Y-44804359D01*
X162182899Y-44803256D01*
X162257030Y-44764265D01*
X162286781Y-44738244D01*
X162279445Y-44710965D01*
X162248553Y-44675121D01*
X162169960Y-44623251D01*
X162085323Y-44619439D01*
X162009403Y-44657189D01*
X161956965Y-44730001D01*
X161941839Y-44810124D01*
X161661678Y-44810124D01*
X161669644Y-44736261D01*
X161718634Y-44595829D01*
X161786836Y-44497447D01*
X161909935Y-44398030D01*
X162045528Y-44348711D01*
X162183955Y-44345568D01*
X162315552Y-44384676D01*
G36*
X162315552Y-44384676D02*
G01*
X162430658Y-44462111D01*
X162519611Y-44573949D01*
X162572749Y-44716265D01*
X162583497Y-44821015D01*
X162582276Y-44864726D01*
X162572056Y-44898194D01*
X162543961Y-44928179D01*
X162489116Y-44961440D01*
X162398645Y-45004738D01*
X162263672Y-45064833D01*
X162262989Y-45065134D01*
X162138751Y-45122037D01*
X162036873Y-45172565D01*
X161967767Y-45211280D01*
X161941846Y-45232740D01*
X161941839Y-45232913D01*
X161964685Y-45279644D01*
X162018109Y-45331154D01*
X162079442Y-45368261D01*
X162110515Y-45375632D01*
X162195289Y-45350138D01*
X162268293Y-45286291D01*
X162303913Y-45216094D01*
X162338180Y-45164343D01*
X162405303Y-45105409D01*
X162484208Y-45054496D01*
X162553821Y-45026809D01*
X162568377Y-45025287D01*
X162584763Y-45050321D01*
X162585750Y-45114311D01*
X162573708Y-45200593D01*
X162551007Y-45292501D01*
X162520014Y-45373369D01*
X162518448Y-45376509D01*
X162425181Y-45506734D01*
X162304304Y-45595311D01*
X162167027Y-45638786D01*
X162024560Y-45633706D01*
X161888112Y-45576616D01*
X161882045Y-45572602D01*
X161774710Y-45475326D01*
X161704132Y-45348409D01*
X161665074Y-45181526D01*
X161659832Y-45134639D01*
X161650548Y-44913329D01*
X161661678Y-44810124D01*
X161941839Y-44810124D01*
X161945479Y-44874503D01*
X161965389Y-44893291D01*
X162015026Y-44879235D01*
X162093267Y-44846009D01*
X162180726Y-44804359D01*
X162182899Y-44803256D01*
X162257030Y-44764265D01*
X162286781Y-44738244D01*
X162279445Y-44710965D01*
X162248553Y-44675121D01*
X162169960Y-44623251D01*
X162085323Y-44619439D01*
X162009403Y-44657189D01*
X161956965Y-44730001D01*
X161941839Y-44810124D01*
X161661678Y-44810124D01*
X161669644Y-44736261D01*
X161718634Y-44595829D01*
X161786836Y-44497447D01*
X161909935Y-44398030D01*
X162045528Y-44348711D01*
X162183955Y-44345568D01*
X162315552Y-44384676D01*
G37*
X166079944Y-44424360D02*
X166194343Y-44466842D01*
X166195652Y-44467658D01*
X166266403Y-44519730D01*
X166318636Y-44580584D01*
X166355371Y-44659887D01*
X166379634Y-44767309D01*
X166394445Y-44912517D01*
X166402829Y-45105179D01*
X166403564Y-45132628D01*
X166414120Y-45546521D01*
X166325291Y-45592456D01*
X166261018Y-45623498D01*
X166222210Y-45638206D01*
X166220415Y-45638391D01*
X166213700Y-45611250D01*
X166208365Y-45538041D01*
X166205083Y-45431081D01*
X166204368Y-45344469D01*
X166204351Y-45204162D01*
X166197937Y-45116051D01*
X166175580Y-45074025D01*
X166127732Y-45071975D01*
X166044849Y-45103790D01*
X165919713Y-45162272D01*
X165827697Y-45210845D01*
X165780371Y-45252986D01*
X165766458Y-45298916D01*
X165766437Y-45301189D01*
X165789395Y-45380311D01*
X165857370Y-45423055D01*
X165961398Y-45429246D01*
X166036330Y-45428172D01*
X166075839Y-45449753D01*
X166100478Y-45501591D01*
X166114659Y-45567632D01*
X166094223Y-45605104D01*
X166086528Y-45610467D01*
X166014083Y-45632006D01*
X165912633Y-45635055D01*
X165808157Y-45620778D01*
X165734125Y-45594688D01*
X165631772Y-45507785D01*
X165573591Y-45386816D01*
X165562069Y-45292308D01*
X165570862Y-45207062D01*
X165602680Y-45137476D01*
X165665684Y-45075672D01*
X165768031Y-45013772D01*
X165917882Y-44943897D01*
X165927012Y-44939948D01*
X166061997Y-44877588D01*
X166145294Y-44826446D01*
X166180997Y-44780488D01*
X166173203Y-44733683D01*
X166126007Y-44679998D01*
X166111894Y-44667644D01*
X166017359Y-44619741D01*
X165919406Y-44621758D01*
X165834097Y-44668724D01*
X165777496Y-44755669D01*
X165772237Y-44772734D01*
X165721023Y-44855504D01*
X165656037Y-44895372D01*
X165562069Y-44934882D01*
X165562069Y-44832658D01*
X165590653Y-44684072D01*
X165675495Y-44547784D01*
X165719645Y-44502191D01*
X165820005Y-44443674D01*
X165947635Y-44417184D01*
X166079944Y-44424360D01*
G36*
X166079944Y-44424360D02*
G01*
X166194343Y-44466842D01*
X166195652Y-44467658D01*
X166266403Y-44519730D01*
X166318636Y-44580584D01*
X166355371Y-44659887D01*
X166379634Y-44767309D01*
X166394445Y-44912517D01*
X166402829Y-45105179D01*
X166403564Y-45132628D01*
X166414120Y-45546521D01*
X166325291Y-45592456D01*
X166261018Y-45623498D01*
X166222210Y-45638206D01*
X166220415Y-45638391D01*
X166213700Y-45611250D01*
X166208365Y-45538041D01*
X166205083Y-45431081D01*
X166204368Y-45344469D01*
X166204351Y-45204162D01*
X166197937Y-45116051D01*
X166175580Y-45074025D01*
X166127732Y-45071975D01*
X166044849Y-45103790D01*
X165919713Y-45162272D01*
X165827697Y-45210845D01*
X165780371Y-45252986D01*
X165766458Y-45298916D01*
X165766437Y-45301189D01*
X165789395Y-45380311D01*
X165857370Y-45423055D01*
X165961398Y-45429246D01*
X166036330Y-45428172D01*
X166075839Y-45449753D01*
X166100478Y-45501591D01*
X166114659Y-45567632D01*
X166094223Y-45605104D01*
X166086528Y-45610467D01*
X166014083Y-45632006D01*
X165912633Y-45635055D01*
X165808157Y-45620778D01*
X165734125Y-45594688D01*
X165631772Y-45507785D01*
X165573591Y-45386816D01*
X165562069Y-45292308D01*
X165570862Y-45207062D01*
X165602680Y-45137476D01*
X165665684Y-45075672D01*
X165768031Y-45013772D01*
X165917882Y-44943897D01*
X165927012Y-44939948D01*
X166061997Y-44877588D01*
X166145294Y-44826446D01*
X166180997Y-44780488D01*
X166173203Y-44733683D01*
X166126007Y-44679998D01*
X166111894Y-44667644D01*
X166017359Y-44619741D01*
X165919406Y-44621758D01*
X165834097Y-44668724D01*
X165777496Y-44755669D01*
X165772237Y-44772734D01*
X165721023Y-44855504D01*
X165656037Y-44895372D01*
X165562069Y-44934882D01*
X165562069Y-44832658D01*
X165590653Y-44684072D01*
X165675495Y-44547784D01*
X165719645Y-44502191D01*
X165820005Y-44443674D01*
X165947635Y-44417184D01*
X166079944Y-44424360D01*
G37*
X161171900Y-44361903D02*
X161283450Y-44417522D01*
X161381908Y-44519931D01*
X161409023Y-44557864D01*
X161438562Y-44607500D01*
X161457728Y-44661412D01*
X161468693Y-44733364D01*
X161473629Y-44837122D01*
X161474713Y-44974101D01*
X161469818Y-45161815D01*
X161452804Y-45302758D01*
X161420177Y-45407908D01*
X161368442Y-45488243D01*
X161294104Y-45554741D01*
X161288642Y-45558678D01*
X161215380Y-45598953D01*
X161127160Y-45618880D01*
X161014962Y-45623793D01*
X160832567Y-45623793D01*
X160832491Y-45800857D01*
X160830793Y-45899470D01*
X160820450Y-45957314D01*
X160793422Y-45992006D01*
X160741668Y-46021164D01*
X160729239Y-46027121D01*
X160671077Y-46055039D01*
X160626044Y-46072672D01*
X160592559Y-46074194D01*
X160569038Y-46053781D01*
X160553900Y-46005607D01*
X160545563Y-45923846D01*
X160542444Y-45802672D01*
X160542960Y-45636260D01*
X160545529Y-45418785D01*
X160546332Y-45353736D01*
X160549222Y-45129502D01*
X160551812Y-44982821D01*
X160832414Y-44982821D01*
X160833991Y-45107326D01*
X160841000Y-45188787D01*
X160856858Y-45242515D01*
X160884981Y-45283823D01*
X160904075Y-45303971D01*
X160982135Y-45362921D01*
X161051247Y-45367720D01*
X161122560Y-45319038D01*
X161124368Y-45317241D01*
X161153383Y-45279618D01*
X161171033Y-45228484D01*
X161179936Y-45149738D01*
X161182709Y-45029276D01*
X161182759Y-45002588D01*
X161176058Y-44836583D01*
X161154248Y-44721505D01*
X161114765Y-44651254D01*
X161055044Y-44619729D01*
X161020528Y-44616552D01*
X160938611Y-44631460D01*
X160882421Y-44680548D01*
X160848598Y-44770362D01*
X160833780Y-44907445D01*
X160832414Y-44982821D01*
X160551812Y-44982821D01*
X160552287Y-44955952D01*
X160556247Y-44825382D01*
X160561826Y-44730087D01*
X160569746Y-44662364D01*
X160580731Y-44614507D01*
X160595501Y-44578813D01*
X160614782Y-44547578D01*
X160623049Y-44535824D01*
X160732712Y-44424797D01*
X160871365Y-44361847D01*
X161031754Y-44344297D01*
X161171900Y-44361903D01*
G36*
X161171900Y-44361903D02*
G01*
X161283450Y-44417522D01*
X161381908Y-44519931D01*
X161409023Y-44557864D01*
X161438562Y-44607500D01*
X161457728Y-44661412D01*
X161468693Y-44733364D01*
X161473629Y-44837122D01*
X161474713Y-44974101D01*
X161469818Y-45161815D01*
X161452804Y-45302758D01*
X161420177Y-45407908D01*
X161368442Y-45488243D01*
X161294104Y-45554741D01*
X161288642Y-45558678D01*
X161215380Y-45598953D01*
X161127160Y-45618880D01*
X161014962Y-45623793D01*
X160832567Y-45623793D01*
X160832491Y-45800857D01*
X160830793Y-45899470D01*
X160820450Y-45957314D01*
X160793422Y-45992006D01*
X160741668Y-46021164D01*
X160729239Y-46027121D01*
X160671077Y-46055039D01*
X160626044Y-46072672D01*
X160592559Y-46074194D01*
X160569038Y-46053781D01*
X160553900Y-46005607D01*
X160545563Y-45923846D01*
X160542444Y-45802672D01*
X160542960Y-45636260D01*
X160545529Y-45418785D01*
X160546332Y-45353736D01*
X160549222Y-45129502D01*
X160551812Y-44982821D01*
X160832414Y-44982821D01*
X160833991Y-45107326D01*
X160841000Y-45188787D01*
X160856858Y-45242515D01*
X160884981Y-45283823D01*
X160904075Y-45303971D01*
X160982135Y-45362921D01*
X161051247Y-45367720D01*
X161122560Y-45319038D01*
X161124368Y-45317241D01*
X161153383Y-45279618D01*
X161171033Y-45228484D01*
X161179936Y-45149738D01*
X161182709Y-45029276D01*
X161182759Y-45002588D01*
X161176058Y-44836583D01*
X161154248Y-44721505D01*
X161114765Y-44651254D01*
X161055044Y-44619729D01*
X161020528Y-44616552D01*
X160938611Y-44631460D01*
X160882421Y-44680548D01*
X160848598Y-44770362D01*
X160833780Y-44907445D01*
X160832414Y-44982821D01*
X160551812Y-44982821D01*
X160552287Y-44955952D01*
X160556247Y-44825382D01*
X160561826Y-44730087D01*
X160569746Y-44662364D01*
X160580731Y-44614507D01*
X160595501Y-44578813D01*
X160614782Y-44547578D01*
X160623049Y-44535824D01*
X160732712Y-44424797D01*
X160871365Y-44361847D01*
X161031754Y-44344297D01*
X161171900Y-44361903D01*
G37*
X170314406Y-44435156D02*
X170398469Y-44473393D01*
X170464450Y-44519726D01*
X170512794Y-44571532D01*
X170546172Y-44638363D01*
X170567253Y-44729769D01*
X170578707Y-44855301D01*
X170583203Y-45024508D01*
X170583678Y-45135933D01*
X170583678Y-45570627D01*
X170509316Y-45604509D01*
X170450746Y-45629272D01*
X170421730Y-45638391D01*
X170416179Y-45611257D01*
X170411775Y-45538094D01*
X170409078Y-45431263D01*
X170408506Y-45346437D01*
X170406046Y-45223887D01*
X170399412Y-45126668D01*
X170389726Y-45067134D01*
X170382032Y-45054483D01*
X170330311Y-45067402D01*
X170249117Y-45100539D01*
X170155102Y-45145461D01*
X170064917Y-45193735D01*
X169995215Y-45236928D01*
X169962648Y-45266608D01*
X169962519Y-45266929D01*
X169965320Y-45321857D01*
X169990439Y-45374292D01*
X170034541Y-45416881D01*
X170098909Y-45431126D01*
X170153921Y-45429466D01*
X170231835Y-45428245D01*
X170272732Y-45446498D01*
X170297295Y-45494726D01*
X170300392Y-45503820D01*
X170311040Y-45572598D01*
X170282565Y-45614360D01*
X170208344Y-45634263D01*
X170128168Y-45637944D01*
X169983890Y-45610658D01*
X169909203Y-45571690D01*
X169816963Y-45480148D01*
X169768043Y-45367782D01*
X169763654Y-45249051D01*
X169805001Y-45138411D01*
X169867197Y-45069080D01*
X169929294Y-45030265D01*
X170026895Y-44981125D01*
X170140632Y-44931292D01*
X170159590Y-44923677D01*
X170284521Y-44868545D01*
X170356539Y-44819954D01*
X170379700Y-44771647D01*
X170358064Y-44717370D01*
X170320920Y-44674943D01*
X170233127Y-44622702D01*
X170136530Y-44618784D01*
X170047944Y-44659041D01*
X169984186Y-44739326D01*
X169975817Y-44760040D01*
X169927096Y-44836225D01*
X169855965Y-44892785D01*
X169766207Y-44939201D01*
X169766207Y-44807584D01*
X169771490Y-44727168D01*
X169794142Y-44663786D01*
X169844367Y-44596163D01*
X169892582Y-44544076D01*
X169967554Y-44470322D01*
X170025806Y-44430702D01*
X170088372Y-44414810D01*
X170159193Y-44412184D01*
X170314406Y-44435156D01*
G36*
X170314406Y-44435156D02*
G01*
X170398469Y-44473393D01*
X170464450Y-44519726D01*
X170512794Y-44571532D01*
X170546172Y-44638363D01*
X170567253Y-44729769D01*
X170578707Y-44855301D01*
X170583203Y-45024508D01*
X170583678Y-45135933D01*
X170583678Y-45570627D01*
X170509316Y-45604509D01*
X170450746Y-45629272D01*
X170421730Y-45638391D01*
X170416179Y-45611257D01*
X170411775Y-45538094D01*
X170409078Y-45431263D01*
X170408506Y-45346437D01*
X170406046Y-45223887D01*
X170399412Y-45126668D01*
X170389726Y-45067134D01*
X170382032Y-45054483D01*
X170330311Y-45067402D01*
X170249117Y-45100539D01*
X170155102Y-45145461D01*
X170064917Y-45193735D01*
X169995215Y-45236928D01*
X169962648Y-45266608D01*
X169962519Y-45266929D01*
X169965320Y-45321857D01*
X169990439Y-45374292D01*
X170034541Y-45416881D01*
X170098909Y-45431126D01*
X170153921Y-45429466D01*
X170231835Y-45428245D01*
X170272732Y-45446498D01*
X170297295Y-45494726D01*
X170300392Y-45503820D01*
X170311040Y-45572598D01*
X170282565Y-45614360D01*
X170208344Y-45634263D01*
X170128168Y-45637944D01*
X169983890Y-45610658D01*
X169909203Y-45571690D01*
X169816963Y-45480148D01*
X169768043Y-45367782D01*
X169763654Y-45249051D01*
X169805001Y-45138411D01*
X169867197Y-45069080D01*
X169929294Y-45030265D01*
X170026895Y-44981125D01*
X170140632Y-44931292D01*
X170159590Y-44923677D01*
X170284521Y-44868545D01*
X170356539Y-44819954D01*
X170379700Y-44771647D01*
X170358064Y-44717370D01*
X170320920Y-44674943D01*
X170233127Y-44622702D01*
X170136530Y-44618784D01*
X170047944Y-44659041D01*
X169984186Y-44739326D01*
X169975817Y-44760040D01*
X169927096Y-44836225D01*
X169855965Y-44892785D01*
X169766207Y-44939201D01*
X169766207Y-44807584D01*
X169771490Y-44727168D01*
X169794142Y-44663786D01*
X169844367Y-44596163D01*
X169892582Y-44544076D01*
X169967554Y-44470322D01*
X170025806Y-44430702D01*
X170088372Y-44414810D01*
X170159193Y-44412184D01*
X170314406Y-44435156D01*
G37*
X166209014Y-34952998D02*
X166367006Y-34953863D01*
X166481347Y-34956205D01*
X166559407Y-34960762D01*
X166608554Y-34968270D01*
X166636159Y-34979466D01*
X166649592Y-34995088D01*
X166656221Y-35015873D01*
X166656865Y-35018563D01*
X166666935Y-35067113D01*
X166685575Y-35162905D01*
X166710845Y-35295743D01*
X166740807Y-35455431D01*
X166773522Y-35631774D01*
X166774664Y-35637967D01*
X166807433Y-35810782D01*
X166838093Y-35963469D01*
X166864664Y-36086871D01*
X166885167Y-36171831D01*
X166897626Y-36209190D01*
X166898220Y-36209852D01*
X166934919Y-36228095D01*
X167010586Y-36258497D01*
X167108878Y-36294493D01*
X167109425Y-36294685D01*
X167233233Y-36341222D01*
X167379196Y-36400504D01*
X167516781Y-36460109D01*
X167523293Y-36463056D01*
X167747390Y-36564765D01*
X168243619Y-36225897D01*
X168395846Y-36122592D01*
X168533741Y-36030237D01*
X168649315Y-35954084D01*
X168734579Y-35899385D01*
X168781544Y-35871393D01*
X168786004Y-35869317D01*
X168820134Y-35878560D01*
X168883881Y-35923156D01*
X168979731Y-36005209D01*
X169110169Y-36126821D01*
X169243328Y-36256205D01*
X169371694Y-36383702D01*
X169486581Y-36500046D01*
X169581073Y-36598052D01*
X169648253Y-36670536D01*
X169681206Y-36710313D01*
X169682432Y-36712361D01*
X169686074Y-36739656D01*
X169672350Y-36784234D01*
X169637869Y-36852112D01*
X169579239Y-36949311D01*
X169493070Y-37081851D01*
X169378200Y-37252476D01*
X169276254Y-37402655D01*
X169185123Y-37537350D01*
X169110073Y-37648740D01*
X169056369Y-37729005D01*
X169029280Y-37770325D01*
X169027574Y-37773130D01*
X169030882Y-37812721D01*
X169055953Y-37889669D01*
X169097798Y-37989432D01*
X169112712Y-38021291D01*
X169177786Y-38163226D01*
X169247212Y-38324273D01*
X169303609Y-38463621D01*
X169344247Y-38567044D01*
X169376526Y-38645642D01*
X169395178Y-38686720D01*
X169397497Y-38689885D01*
X169431803Y-38695128D01*
X169512669Y-38709494D01*
X169629343Y-38730937D01*
X169771075Y-38757413D01*
X169927110Y-38786877D01*
X170086698Y-38817283D01*
X170239085Y-38846588D01*
X170373521Y-38872745D01*
X170479252Y-38893710D01*
X170545526Y-38907439D01*
X170561782Y-38911320D01*
X170578573Y-38920900D01*
X170591249Y-38942536D01*
X170600378Y-38983531D01*
X170606531Y-39051189D01*
X170610280Y-39152812D01*
X170612192Y-39295703D01*
X170612840Y-39487165D01*
X170612874Y-39565645D01*
X170612874Y-40203906D01*
X170459598Y-40234160D01*
X170374322Y-40250564D01*
X170247070Y-40274509D01*
X170093315Y-40303107D01*
X169928534Y-40333467D01*
X169882989Y-40341806D01*
X169730932Y-40371370D01*
X169598468Y-40400442D01*
X169496714Y-40426329D01*
X169436788Y-40446337D01*
X169426805Y-40452301D01*
X169402293Y-40494534D01*
X169367148Y-40576370D01*
X169328173Y-40681683D01*
X169320442Y-40704368D01*
X169269360Y-40845018D01*
X169205954Y-41003714D01*
X169143904Y-41146225D01*
X169143598Y-41146886D01*
X169040267Y-41370440D01*
X169719961Y-42370232D01*
X169283621Y-42807300D01*
X169151649Y-42937381D01*
X169031279Y-43052048D01*
X168929273Y-43145181D01*
X168852391Y-43210658D01*
X168807393Y-43242357D01*
X168800938Y-43244368D01*
X168763040Y-43228529D01*
X168685708Y-43184496D01*
X168577389Y-43117490D01*
X168446532Y-43032734D01*
X168305052Y-42937816D01*
X168161461Y-42840998D01*
X168033435Y-42756751D01*
X167929105Y-42690258D01*
X167856600Y-42646702D01*
X167824158Y-42631264D01*
X167784576Y-42644328D01*
X167709519Y-42678750D01*
X167614468Y-42727380D01*
X167604392Y-42732785D01*
X167476391Y-42796980D01*
X167388618Y-42828463D01*
X167334028Y-42828798D01*
X167305575Y-42799548D01*
X167305410Y-42799138D01*
X167291188Y-42764498D01*
X167257269Y-42682269D01*
X167206284Y-42558814D01*
X167140862Y-42400498D01*
X167063634Y-42213686D01*
X166977229Y-42004742D01*
X166893551Y-41802446D01*
X166801588Y-41579200D01*
X166717150Y-41372392D01*
X166642769Y-41188362D01*
X166580974Y-41033451D01*
X166534297Y-40913996D01*
X166505268Y-40836339D01*
X166496322Y-40807356D01*
X166518756Y-40774110D01*
X166577439Y-40721123D01*
X166655689Y-40662704D01*
X166878534Y-40477952D01*
X167052718Y-40266182D01*
X167176154Y-40031856D01*
X167246754Y-39779434D01*
X167262431Y-39513377D01*
X167251036Y-39390575D01*
X167188950Y-39135793D01*
X167082023Y-38910801D01*
X166936889Y-38717817D01*
X166760178Y-38559061D01*
X166558522Y-38436750D01*
X166338554Y-38353105D01*
X166106906Y-38310344D01*
X165870209Y-38310687D01*
X165635095Y-38356352D01*
X165408196Y-38449559D01*
X165196144Y-38592527D01*
X165107636Y-38673383D01*
X164937889Y-38881007D01*
X164819699Y-39107895D01*
X164752278Y-39347433D01*
X164734840Y-39593007D01*
X164766598Y-39838003D01*
X164846765Y-40075808D01*
X164974555Y-40299807D01*
X165149180Y-40503387D01*
X165344312Y-40662704D01*
X165425591Y-40723602D01*
X165483009Y-40776015D01*
X165503678Y-40807406D01*
X165492856Y-40841639D01*
X165462077Y-40923419D01*
X165413874Y-41046407D01*
X165350778Y-41204263D01*
X165275322Y-41390649D01*
X165190038Y-41599226D01*
X165106219Y-41802496D01*
X165013745Y-42025933D01*
X164928089Y-42232984D01*
X164851882Y-42417286D01*
X164787753Y-42572475D01*
X164738332Y-42692188D01*
X164706248Y-42770061D01*
X164694359Y-42799138D01*
X164666274Y-42828677D01*
X164611949Y-42828591D01*
X164524395Y-42797326D01*
X164396619Y-42733329D01*
X164395608Y-42732785D01*
X164299402Y-42683121D01*
X164221631Y-42646945D01*
X164177777Y-42631408D01*
X164175842Y-42631264D01*
X164142829Y-42647024D01*
X164069946Y-42690850D01*
X163965322Y-42757557D01*
X163837090Y-42841964D01*
X163694948Y-42937816D01*
X163550233Y-43034867D01*
X163419804Y-43119270D01*
X163312110Y-43185801D01*
X163235598Y-43229238D01*
X163199062Y-43244368D01*
X163165418Y-43224482D01*
X163097776Y-43168903D01*
X163002893Y-43083754D01*
X162887530Y-42975153D01*
X162758445Y-42849221D01*
X162716229Y-42807149D01*
X162279739Y-42369931D01*
X162611977Y-41882340D01*
X162712946Y-41732605D01*
X162801562Y-41598220D01*
X162872854Y-41486969D01*
X162921850Y-41406639D01*
X162943578Y-41365014D01*
X162944215Y-41362053D01*
X162932760Y-41322818D01*
X162901949Y-41243895D01*
X162857116Y-41138509D01*
X162825647Y-41067954D01*
X162766808Y-40932876D01*
X162711396Y-40796409D01*
X162668436Y-40681103D01*
X162656766Y-40645977D01*
X162623611Y-40552174D01*
X162591201Y-40479694D01*
X162573399Y-40452301D01*
X162534114Y-40435536D01*
X162448374Y-40411770D01*
X162327303Y-40383697D01*
X162182027Y-40354009D01*
X162117012Y-40341806D01*
X161951913Y-40311468D01*
X161793552Y-40282093D01*
X161657404Y-40256569D01*
X161558943Y-40237785D01*
X161540402Y-40234160D01*
X161387127Y-40203906D01*
X161387127Y-39565645D01*
X161387471Y-39355770D01*
X161388884Y-39196980D01*
X161391936Y-39081973D01*
X161397197Y-39003446D01*
X161405237Y-38954096D01*
X161416627Y-38926619D01*
X161431937Y-38913713D01*
X161438218Y-38911320D01*
X161476104Y-38902833D01*
X161559805Y-38885900D01*
X161678567Y-38862566D01*
X161821639Y-38834875D01*
X161978268Y-38804873D01*
X162137703Y-38774604D01*
X162289191Y-38746115D01*
X162421981Y-38721449D01*
X162525319Y-38702651D01*
X162588455Y-38691767D01*
X162602503Y-38689885D01*
X162615230Y-38664704D01*
X162643400Y-38597622D01*
X162681748Y-38501333D01*
X162696391Y-38463621D01*
X162755452Y-38317921D01*
X162825000Y-38156951D01*
X162887288Y-38021291D01*
X162933121Y-37917561D01*
X162963613Y-37832326D01*
X162973792Y-37780126D01*
X162972169Y-37773130D01*
X162950657Y-37740102D01*
X162901535Y-37666643D01*
X162830077Y-37560577D01*
X162741555Y-37429726D01*
X162641241Y-37281912D01*
X162621406Y-37252734D01*
X162505012Y-37079863D01*
X162419452Y-36948226D01*
X162361316Y-36851761D01*
X162327192Y-36784408D01*
X162313669Y-36740106D01*
X162317336Y-36712794D01*
X162317430Y-36712620D01*
X162346293Y-36676746D01*
X162410133Y-36607391D01*
X162502031Y-36511745D01*
X162615067Y-36396999D01*
X162742321Y-36270341D01*
X162756672Y-36256205D01*
X162917043Y-36100903D01*
X163040805Y-35986870D01*
X163130445Y-35912002D01*
X163188448Y-35874196D01*
X163213996Y-35869317D01*
X163251282Y-35890603D01*
X163328657Y-35939773D01*
X163438133Y-36011575D01*
X163571720Y-36100755D01*
X163721430Y-36202063D01*
X163756382Y-36225897D01*
X164252610Y-36564765D01*
X164476707Y-36463056D01*
X164612989Y-36403783D01*
X164759276Y-36344170D01*
X164885035Y-36296640D01*
X164890575Y-36294685D01*
X164988943Y-36258677D01*
X165064771Y-36228229D01*
X165101718Y-36209905D01*
X165101780Y-36209852D01*
X165113504Y-36176729D01*
X165133432Y-36095267D01*
X165159587Y-35974625D01*
X165189990Y-35823959D01*
X165222663Y-35652428D01*
X165225336Y-35637967D01*
X165258110Y-35461235D01*
X165288198Y-35300810D01*
X165313661Y-35166888D01*
X165332559Y-35069663D01*
X165342953Y-35019332D01*
X165343135Y-35018563D01*
X165349461Y-34997153D01*
X165361761Y-34980988D01*
X165387406Y-34969331D01*
X165433765Y-34961445D01*
X165508208Y-34956593D01*
X165618105Y-34954039D01*
X165770825Y-34953045D01*
X165973738Y-34952874D01*
X166000000Y-34952874D01*
X166209014Y-34952998D01*
G36*
X166209014Y-34952998D02*
G01*
X166367006Y-34953863D01*
X166481347Y-34956205D01*
X166559407Y-34960762D01*
X166608554Y-34968270D01*
X166636159Y-34979466D01*
X166649592Y-34995088D01*
X166656221Y-35015873D01*
X166656865Y-35018563D01*
X166666935Y-35067113D01*
X166685575Y-35162905D01*
X166710845Y-35295743D01*
X166740807Y-35455431D01*
X166773522Y-35631774D01*
X166774664Y-35637967D01*
X166807433Y-35810782D01*
X166838093Y-35963469D01*
X166864664Y-36086871D01*
X166885167Y-36171831D01*
X166897626Y-36209190D01*
X166898220Y-36209852D01*
X166934919Y-36228095D01*
X167010586Y-36258497D01*
X167108878Y-36294493D01*
X167109425Y-36294685D01*
X167233233Y-36341222D01*
X167379196Y-36400504D01*
X167516781Y-36460109D01*
X167523293Y-36463056D01*
X167747390Y-36564765D01*
X168243619Y-36225897D01*
X168395846Y-36122592D01*
X168533741Y-36030237D01*
X168649315Y-35954084D01*
X168734579Y-35899385D01*
X168781544Y-35871393D01*
X168786004Y-35869317D01*
X168820134Y-35878560D01*
X168883881Y-35923156D01*
X168979731Y-36005209D01*
X169110169Y-36126821D01*
X169243328Y-36256205D01*
X169371694Y-36383702D01*
X169486581Y-36500046D01*
X169581073Y-36598052D01*
X169648253Y-36670536D01*
X169681206Y-36710313D01*
X169682432Y-36712361D01*
X169686074Y-36739656D01*
X169672350Y-36784234D01*
X169637869Y-36852112D01*
X169579239Y-36949311D01*
X169493070Y-37081851D01*
X169378200Y-37252476D01*
X169276254Y-37402655D01*
X169185123Y-37537350D01*
X169110073Y-37648740D01*
X169056369Y-37729005D01*
X169029280Y-37770325D01*
X169027574Y-37773130D01*
X169030882Y-37812721D01*
X169055953Y-37889669D01*
X169097798Y-37989432D01*
X169112712Y-38021291D01*
X169177786Y-38163226D01*
X169247212Y-38324273D01*
X169303609Y-38463621D01*
X169344247Y-38567044D01*
X169376526Y-38645642D01*
X169395178Y-38686720D01*
X169397497Y-38689885D01*
X169431803Y-38695128D01*
X169512669Y-38709494D01*
X169629343Y-38730937D01*
X169771075Y-38757413D01*
X169927110Y-38786877D01*
X170086698Y-38817283D01*
X170239085Y-38846588D01*
X170373521Y-38872745D01*
X170479252Y-38893710D01*
X170545526Y-38907439D01*
X170561782Y-38911320D01*
X170578573Y-38920900D01*
X170591249Y-38942536D01*
X170600378Y-38983531D01*
X170606531Y-39051189D01*
X170610280Y-39152812D01*
X170612192Y-39295703D01*
X170612840Y-39487165D01*
X170612874Y-39565645D01*
X170612874Y-40203906D01*
X170459598Y-40234160D01*
X170374322Y-40250564D01*
X170247070Y-40274509D01*
X170093315Y-40303107D01*
X169928534Y-40333467D01*
X169882989Y-40341806D01*
X169730932Y-40371370D01*
X169598468Y-40400442D01*
X169496714Y-40426329D01*
X169436788Y-40446337D01*
X169426805Y-40452301D01*
X169402293Y-40494534D01*
X169367148Y-40576370D01*
X169328173Y-40681683D01*
X169320442Y-40704368D01*
X169269360Y-40845018D01*
X169205954Y-41003714D01*
X169143904Y-41146225D01*
X169143598Y-41146886D01*
X169040267Y-41370440D01*
X169719961Y-42370232D01*
X169283621Y-42807300D01*
X169151649Y-42937381D01*
X169031279Y-43052048D01*
X168929273Y-43145181D01*
X168852391Y-43210658D01*
X168807393Y-43242357D01*
X168800938Y-43244368D01*
X168763040Y-43228529D01*
X168685708Y-43184496D01*
X168577389Y-43117490D01*
X168446532Y-43032734D01*
X168305052Y-42937816D01*
X168161461Y-42840998D01*
X168033435Y-42756751D01*
X167929105Y-42690258D01*
X167856600Y-42646702D01*
X167824158Y-42631264D01*
X167784576Y-42644328D01*
X167709519Y-42678750D01*
X167614468Y-42727380D01*
X167604392Y-42732785D01*
X167476391Y-42796980D01*
X167388618Y-42828463D01*
X167334028Y-42828798D01*
X167305575Y-42799548D01*
X167305410Y-42799138D01*
X167291188Y-42764498D01*
X167257269Y-42682269D01*
X167206284Y-42558814D01*
X167140862Y-42400498D01*
X167063634Y-42213686D01*
X166977229Y-42004742D01*
X166893551Y-41802446D01*
X166801588Y-41579200D01*
X166717150Y-41372392D01*
X166642769Y-41188362D01*
X166580974Y-41033451D01*
X166534297Y-40913996D01*
X166505268Y-40836339D01*
X166496322Y-40807356D01*
X166518756Y-40774110D01*
X166577439Y-40721123D01*
X166655689Y-40662704D01*
X166878534Y-40477952D01*
X167052718Y-40266182D01*
X167176154Y-40031856D01*
X167246754Y-39779434D01*
X167262431Y-39513377D01*
X167251036Y-39390575D01*
X167188950Y-39135793D01*
X167082023Y-38910801D01*
X166936889Y-38717817D01*
X166760178Y-38559061D01*
X166558522Y-38436750D01*
X166338554Y-38353105D01*
X166106906Y-38310344D01*
X165870209Y-38310687D01*
X165635095Y-38356352D01*
X165408196Y-38449559D01*
X165196144Y-38592527D01*
X165107636Y-38673383D01*
X164937889Y-38881007D01*
X164819699Y-39107895D01*
X164752278Y-39347433D01*
X164734840Y-39593007D01*
X164766598Y-39838003D01*
X164846765Y-40075808D01*
X164974555Y-40299807D01*
X165149180Y-40503387D01*
X165344312Y-40662704D01*
X165425591Y-40723602D01*
X165483009Y-40776015D01*
X165503678Y-40807406D01*
X165492856Y-40841639D01*
X165462077Y-40923419D01*
X165413874Y-41046407D01*
X165350778Y-41204263D01*
X165275322Y-41390649D01*
X165190038Y-41599226D01*
X165106219Y-41802496D01*
X165013745Y-42025933D01*
X164928089Y-42232984D01*
X164851882Y-42417286D01*
X164787753Y-42572475D01*
X164738332Y-42692188D01*
X164706248Y-42770061D01*
X164694359Y-42799138D01*
X164666274Y-42828677D01*
X164611949Y-42828591D01*
X164524395Y-42797326D01*
X164396619Y-42733329D01*
X164395608Y-42732785D01*
X164299402Y-42683121D01*
X164221631Y-42646945D01*
X164177777Y-42631408D01*
X164175842Y-42631264D01*
X164142829Y-42647024D01*
X164069946Y-42690850D01*
X163965322Y-42757557D01*
X163837090Y-42841964D01*
X163694948Y-42937816D01*
X163550233Y-43034867D01*
X163419804Y-43119270D01*
X163312110Y-43185801D01*
X163235598Y-43229238D01*
X163199062Y-43244368D01*
X163165418Y-43224482D01*
X163097776Y-43168903D01*
X163002893Y-43083754D01*
X162887530Y-42975153D01*
X162758445Y-42849221D01*
X162716229Y-42807149D01*
X162279739Y-42369931D01*
X162611977Y-41882340D01*
X162712946Y-41732605D01*
X162801562Y-41598220D01*
X162872854Y-41486969D01*
X162921850Y-41406639D01*
X162943578Y-41365014D01*
X162944215Y-41362053D01*
X162932760Y-41322818D01*
X162901949Y-41243895D01*
X162857116Y-41138509D01*
X162825647Y-41067954D01*
X162766808Y-40932876D01*
X162711396Y-40796409D01*
X162668436Y-40681103D01*
X162656766Y-40645977D01*
X162623611Y-40552174D01*
X162591201Y-40479694D01*
X162573399Y-40452301D01*
X162534114Y-40435536D01*
X162448374Y-40411770D01*
X162327303Y-40383697D01*
X162182027Y-40354009D01*
X162117012Y-40341806D01*
X161951913Y-40311468D01*
X161793552Y-40282093D01*
X161657404Y-40256569D01*
X161558943Y-40237785D01*
X161540402Y-40234160D01*
X161387127Y-40203906D01*
X161387127Y-39565645D01*
X161387471Y-39355770D01*
X161388884Y-39196980D01*
X161391936Y-39081973D01*
X161397197Y-39003446D01*
X161405237Y-38954096D01*
X161416627Y-38926619D01*
X161431937Y-38913713D01*
X161438218Y-38911320D01*
X161476104Y-38902833D01*
X161559805Y-38885900D01*
X161678567Y-38862566D01*
X161821639Y-38834875D01*
X161978268Y-38804873D01*
X162137703Y-38774604D01*
X162289191Y-38746115D01*
X162421981Y-38721449D01*
X162525319Y-38702651D01*
X162588455Y-38691767D01*
X162602503Y-38689885D01*
X162615230Y-38664704D01*
X162643400Y-38597622D01*
X162681748Y-38501333D01*
X162696391Y-38463621D01*
X162755452Y-38317921D01*
X162825000Y-38156951D01*
X162887288Y-38021291D01*
X162933121Y-37917561D01*
X162963613Y-37832326D01*
X162973792Y-37780126D01*
X162972169Y-37773130D01*
X162950657Y-37740102D01*
X162901535Y-37666643D01*
X162830077Y-37560577D01*
X162741555Y-37429726D01*
X162641241Y-37281912D01*
X162621406Y-37252734D01*
X162505012Y-37079863D01*
X162419452Y-36948226D01*
X162361316Y-36851761D01*
X162327192Y-36784408D01*
X162313669Y-36740106D01*
X162317336Y-36712794D01*
X162317430Y-36712620D01*
X162346293Y-36676746D01*
X162410133Y-36607391D01*
X162502031Y-36511745D01*
X162615067Y-36396999D01*
X162742321Y-36270341D01*
X162756672Y-36256205D01*
X162917043Y-36100903D01*
X163040805Y-35986870D01*
X163130445Y-35912002D01*
X163188448Y-35874196D01*
X163213996Y-35869317D01*
X163251282Y-35890603D01*
X163328657Y-35939773D01*
X163438133Y-36011575D01*
X163571720Y-36100755D01*
X163721430Y-36202063D01*
X163756382Y-36225897D01*
X164252610Y-36564765D01*
X164476707Y-36463056D01*
X164612989Y-36403783D01*
X164759276Y-36344170D01*
X164885035Y-36296640D01*
X164890575Y-36294685D01*
X164988943Y-36258677D01*
X165064771Y-36228229D01*
X165101718Y-36209905D01*
X165101780Y-36209852D01*
X165113504Y-36176729D01*
X165133432Y-36095267D01*
X165159587Y-35974625D01*
X165189990Y-35823959D01*
X165222663Y-35652428D01*
X165225336Y-35637967D01*
X165258110Y-35461235D01*
X165288198Y-35300810D01*
X165313661Y-35166888D01*
X165332559Y-35069663D01*
X165342953Y-35019332D01*
X165343135Y-35018563D01*
X165349461Y-34997153D01*
X165361761Y-34980988D01*
X165387406Y-34969331D01*
X165433765Y-34961445D01*
X165508208Y-34956593D01*
X165618105Y-34954039D01*
X165770825Y-34953045D01*
X165973738Y-34952874D01*
X166000000Y-34952874D01*
X166209014Y-34952998D01*
G37*
%TO.C,SW1*%
D12*
X99900000Y-39900000D02*
X99900000Y-54100000D01*
X99900000Y-54100000D02*
X114100000Y-54100000D01*
X114100000Y-39900000D02*
X99900000Y-39900000D01*
X114100000Y-54100000D02*
X114100000Y-39900000D01*
%TO.C,SW2*%
X119320000Y-39900000D02*
X119320000Y-54100000D01*
X119320000Y-54100000D02*
X133520000Y-54100000D01*
X133520000Y-39900000D02*
X119320000Y-39900000D01*
X133520000Y-54100000D02*
X133520000Y-39900000D01*
%TD*%
M02*
