%TF.GenerationSoftware,KiCad,Pcbnew,10.0.1*%
%TF.CreationDate,2026-05-08T20:39:28+05:30*%
%TF.ProjectId,pigmy-corydora,7069676d-792d-4636-9f72-79646f72612e,V 1.0*%
%TF.SameCoordinates,Original*%
%TF.FileFunction,Plated,1,2,PTH,Drill*%
%TF.FilePolarity,Positive*%
%FSLAX46Y46*%
G04 Gerber Fmt 4.6, Leading zero omitted, Abs format (unit mm)*
G04 Created by KiCad (PCBNEW 10.0.1) date 2026-05-08 20:39:28*
%MOMM*%
%LPD*%
G01*
G04 APERTURE LIST*
%TA.AperFunction,ViaDrill*%
%ADD10C,0.350000*%
%TD*%
%TA.AperFunction,ComponentDrill*%
%ADD11C,0.800000*%
%TD*%
%TA.AperFunction,ComponentDrill*%
%ADD12C,1.500000*%
%TD*%
%TA.AperFunction,ComponentDrill*%
%ADD13C,2.200000*%
%TD*%
G04 APERTURE END LIST*
D10*
X102000000Y-57000000D03*
X103500000Y-58000000D03*
X107500000Y-43000000D03*
X108000000Y-40500000D03*
X109500000Y-44000000D03*
X111500000Y-41000000D03*
X111500000Y-43000000D03*
X111500000Y-58000000D03*
X112500000Y-56500000D03*
X127000000Y-43000000D03*
X127500000Y-40500000D03*
X129000000Y-44000000D03*
X131000000Y-41000000D03*
X131000000Y-43000000D03*
X139450000Y-56000000D03*
X143000000Y-57500000D03*
X146500000Y-43000000D03*
X147000000Y-40500000D03*
X148031026Y-57806329D03*
X148500000Y-44000000D03*
X150083673Y-55343152D03*
X150500000Y-41000000D03*
X150500000Y-43000000D03*
X156000000Y-52500000D03*
X172500000Y-39500000D03*
X172500000Y-40500000D03*
D11*
%TO.C,RZ1*%
X158760000Y-36500000D03*
X158760000Y-39040000D03*
X158760000Y-41580000D03*
X158760000Y-44120000D03*
X158760000Y-46660000D03*
X158760000Y-49200000D03*
X158760000Y-51740000D03*
X158760000Y-54280000D03*
X158760000Y-56820000D03*
X161300000Y-57030000D03*
X163840000Y-57030000D03*
X166380000Y-57030000D03*
X168920000Y-57030000D03*
X171460000Y-57030000D03*
X174000000Y-36500000D03*
X174000000Y-39040000D03*
X174000000Y-41580000D03*
X174000000Y-44120000D03*
X174000000Y-46660000D03*
X174000000Y-49200000D03*
X174000000Y-51740000D03*
X174000000Y-54280000D03*
X174000000Y-56820000D03*
D12*
%TO.C,SW1*%
X103190000Y-44460000D03*
X109540000Y-41920000D03*
%TO.C,SW2*%
X122610000Y-44460000D03*
X128960000Y-41920000D03*
%TO.C,SW3*%
X142270000Y-44460000D03*
X148620000Y-41920000D03*
D13*
%TO.C,H1*%
X97000000Y-37500000D03*
%TO.C,H2*%
X97000000Y-56500000D03*
%TO.C,H3*%
X136170397Y-39000000D03*
%TO.C,H4*%
X154000000Y-56500000D03*
M02*
