%TF.GenerationSoftware,KiCad,Pcbnew,10.0.1*%
%TF.CreationDate,2026-05-08T20:38:29+05:30*%
%TF.ProjectId,pigmy-corydora,7069676d-792d-4636-9f72-79646f72612e,V 1.0*%
%TF.SameCoordinates,Original*%
%TF.FileFunction,Copper,L1,Top*%
%TF.FilePolarity,Positive*%
%FSLAX46Y46*%
G04 Gerber Fmt 4.6, Leading zero omitted, Abs format (unit mm)*
G04 Created by KiCad (PCBNEW 10.0.1) date 2026-05-08 20:38:29*
%MOMM*%
%LPD*%
G01*
G04 APERTURE LIST*
G04 Aperture macros list*
%AMRoundRect*
0 Rectangle with rounded corners*
0 $1 Rounding radius*
0 $2 $3 $4 $5 $6 $7 $8 $9 X,Y pos of 4 corners*
0 Add a 4 corners polygon primitive as box body*
4,1,4,$2,$3,$4,$5,$6,$7,$8,$9,$2,$3,0*
0 Add four circle primitives for the rounded corners*
1,1,$1+$1,$2,$3*
1,1,$1+$1,$4,$5*
1,1,$1+$1,$6,$7*
1,1,$1+$1,$8,$9*
0 Add four rect primitives between the rounded corners*
20,1,$1+$1,$2,$3,$4,$5,0*
20,1,$1+$1,$4,$5,$6,$7,0*
20,1,$1+$1,$6,$7,$8,$9,0*
20,1,$1+$1,$8,$9,$2,$3,0*%
G04 Aperture macros list end*
%TA.AperFunction,ComponentPad*%
%ADD10C,3.800000*%
%TD*%
%TA.AperFunction,ComponentPad*%
%ADD11C,2.500000*%
%TD*%
%TA.AperFunction,ComponentPad*%
%ADD12RoundRect,0.400000X0.900000X0.400000X-0.900000X0.400000X-0.900000X-0.400000X0.900000X-0.400000X0*%
%TD*%
%TA.AperFunction,ComponentPad*%
%ADD13RoundRect,0.400050X0.899950X0.400050X-0.899950X0.400050X-0.899950X-0.400050X0.899950X-0.400050X0*%
%TD*%
%TA.AperFunction,ComponentPad*%
%ADD14RoundRect,0.400000X0.400000X0.900000X-0.400000X0.900000X-0.400000X-0.900000X0.400000X-0.900000X0*%
%TD*%
%TA.AperFunction,ComponentPad*%
%ADD15RoundRect,0.393700X0.393700X0.906300X-0.393700X0.906300X-0.393700X-0.906300X0.393700X-0.906300X0*%
%TD*%
%TA.AperFunction,ViaPad*%
%ADD16C,0.700000*%
%TD*%
%TA.AperFunction,Conductor*%
%ADD17C,0.200000*%
%TD*%
G04 APERTURE END LIST*
D10*
%TO.P,H4,1*%
%TO.N,N/C*%
X154000000Y-56500000D03*
%TD*%
D11*
%TO.P,SW3,1,1_1*%
%TO.N,/SW3*%
X142270000Y-44460000D03*
%TO.P,SW3,2,2_2*%
%TO.N,GND*%
X148620000Y-41920000D03*
%TD*%
D10*
%TO.P,H1,1*%
%TO.N,N/C*%
X97000000Y-37500000D03*
%TD*%
D11*
%TO.P,SW1,1,1_1*%
%TO.N,/SW1*%
X103190000Y-44460000D03*
%TO.P,SW1,2,2_2*%
%TO.N,GND*%
X109540000Y-41920000D03*
%TD*%
D10*
%TO.P,H2,1*%
%TO.N,N/C*%
X97000000Y-56500000D03*
%TD*%
D11*
%TO.P,SW2,1,1_1*%
%TO.N,/SW2*%
X122610000Y-44460000D03*
%TO.P,SW2,2,2_2*%
%TO.N,GND*%
X128960000Y-41920000D03*
%TD*%
D10*
%TO.P,H3,1*%
%TO.N,N/C*%
X136170397Y-39000000D03*
%TD*%
D12*
%TO.P,RZ1,1,GP0_1*%
%TO.N,/SW1*%
X158160000Y-36500000D03*
%TO.P,RZ1,2,GP1_2*%
%TO.N,/SW2*%
X158160000Y-39040000D03*
%TO.P,RZ1,3,GP2_3*%
%TO.N,/SW3*%
X158160000Y-41580000D03*
%TO.P,RZ1,4,GP3_4*%
%TO.N,/WS2812*%
X158160000Y-44120000D03*
%TO.P,RZ1,5,GP4_5*%
%TO.N,unconnected-(RZ1-GP4-Pad5)*%
X158160000Y-46660000D03*
D13*
%TO.P,RZ1,6,GP5_6*%
%TO.N,unconnected-(RZ1-GP5-Pad6)*%
X158160000Y-49200000D03*
%TO.P,RZ1,7,GP6_7*%
%TO.N,unconnected-(RZ1-GP6-Pad7)*%
X158160000Y-51740000D03*
%TO.P,RZ1,8,GP7_8*%
%TO.N,unconnected-(RZ1-GP7-Pad8)*%
X158160000Y-54280000D03*
%TO.P,RZ1,9,GP8_9*%
%TO.N,unconnected-(RZ1-GP8-Pad9)*%
X158160000Y-56820000D03*
D14*
%TO.P,RZ1,10,GP9_10*%
%TO.N,unconnected-(RZ1-GP9-Pad10)*%
X161300000Y-57630000D03*
D15*
%TO.P,RZ1,11,GP10_11*%
%TO.N,unconnected-(RZ1-GP10-Pad11)*%
X163840000Y-57630000D03*
%TO.P,RZ1,12,GP11_12*%
%TO.N,unconnected-(RZ1-GP11-Pad12)*%
X166380000Y-57630000D03*
%TO.P,RZ1,13,GP12_13*%
%TO.N,unconnected-(RZ1-GP12-Pad13)*%
X168920000Y-57630000D03*
%TO.P,RZ1,14,GP13_14*%
%TO.N,unconnected-(RZ1-GP13-Pad14)*%
X171460000Y-57630000D03*
D13*
%TO.P,RZ1,15,GP14_15*%
%TO.N,unconnected-(RZ1-GP14-Pad15)*%
X174600000Y-56820000D03*
%TO.P,RZ1,16,GP15_16*%
%TO.N,unconnected-(RZ1-GP15-Pad16)*%
X174600000Y-54280000D03*
%TO.P,RZ1,17,GP26_17*%
%TO.N,unconnected-(RZ1-GP26-Pad17)*%
X174600000Y-51740000D03*
%TO.P,RZ1,18,GP27_18*%
%TO.N,unconnected-(RZ1-GP27-Pad18)*%
X174600000Y-49200000D03*
%TO.P,RZ1,19,GP28_19*%
%TO.N,unconnected-(RZ1-GP28-Pad19)*%
X174600000Y-46660000D03*
%TO.P,RZ1,20,GP29_20*%
%TO.N,unconnected-(RZ1-GP29-Pad20)*%
X174600000Y-44120000D03*
%TO.P,RZ1,21,3V3_21*%
%TO.N,unconnected-(RZ1-3V3-Pad21)*%
X174600000Y-41580000D03*
%TO.P,RZ1,22,GND_22*%
%TO.N,GND*%
X174600000Y-39040000D03*
%TO.P,RZ1,23,5V_23*%
%TO.N,/VBUS*%
X174600000Y-36500000D03*
%TD*%
D16*
%TO.N,/VBUS*%
X156000000Y-52500000D03*
%TO.N,GND*%
X111500000Y-41000000D03*
X112500000Y-56500000D03*
X127500000Y-40500000D03*
X172500000Y-39500000D03*
X111500000Y-58000000D03*
X103500000Y-58000000D03*
X147000000Y-40500000D03*
X172500000Y-40500000D03*
X150500000Y-41000000D03*
X108000000Y-40500000D03*
X111500000Y-43000000D03*
X139450000Y-56000000D03*
X107500000Y-43000000D03*
X109500000Y-44000000D03*
X127000000Y-43000000D03*
X150500000Y-43000000D03*
X150083673Y-55343152D03*
X146500000Y-43000000D03*
X131000000Y-41000000D03*
X143000000Y-57500000D03*
X131000000Y-43000000D03*
X148500000Y-44000000D03*
X148031026Y-57806329D03*
X102000000Y-57000000D03*
X129000000Y-44000000D03*
%TD*%
%TO.N,/VBUS*%
D17*
X159760000Y-50740000D02*
X174000000Y-36500000D01*
X159349922Y-53179900D02*
X159760000Y-52769822D01*
X156679900Y-53179900D02*
X159349922Y-53179900D01*
X159760000Y-52769822D02*
X159760000Y-50740000D01*
X156000000Y-52500000D02*
X156679900Y-53179900D01*
%TO.N,GND*%
X173540000Y-39500000D02*
X174000000Y-39040000D01*
X172500000Y-39500000D02*
X173540000Y-39500000D01*
%TO.N,/SW3*%
X155500000Y-38669950D02*
X155169950Y-38669950D01*
X144500000Y-38000000D02*
X142270000Y-40230000D01*
X158410050Y-41580000D02*
X155500000Y-38669950D01*
X142270000Y-40230000D02*
X142270000Y-44460000D01*
X154500000Y-38000000D02*
X144500000Y-38000000D01*
X158760000Y-41580000D02*
X158410050Y-41580000D01*
X155169950Y-38669950D02*
X154500000Y-38000000D01*
%TO.N,/SW1*%
X103190000Y-42310000D02*
X103190000Y-44460000D01*
X158760000Y-36500000D02*
X157260000Y-35000000D01*
X157260000Y-35000000D02*
X110500000Y-35000000D01*
X110500000Y-35000000D02*
X103190000Y-42310000D01*
%TO.N,/SW2*%
X125500000Y-35500000D02*
X154500000Y-35500000D01*
X122610000Y-44460000D02*
X122610000Y-38390000D01*
X154500000Y-35500000D02*
X158040000Y-39040000D01*
X122610000Y-38390000D02*
X125500000Y-35500000D01*
X158040000Y-39040000D02*
X158760000Y-39040000D01*
%TD*%
%TA.AperFunction,Conductor*%
%TO.N,GND*%
G36*
X109598430Y-34839697D02*
G01*
X109644185Y-34892501D01*
X109654129Y-34961659D01*
X109625104Y-35025215D01*
X109619072Y-35031692D01*
X106211558Y-38439206D01*
X102821286Y-41829478D01*
X102709481Y-41941282D01*
X102709477Y-41941287D01*
X102671801Y-42006546D01*
X102671801Y-42006547D01*
X102630423Y-42078214D01*
X102630423Y-42078215D01*
X102589499Y-42230943D01*
X102589499Y-42230945D01*
X102589499Y-42399046D01*
X102589500Y-42399059D01*
X102589500Y-42731153D01*
X102569815Y-42798192D01*
X102517011Y-42843947D01*
X102512963Y-42845709D01*
X102414112Y-42886656D01*
X102414109Y-42886657D01*
X102414101Y-42886661D01*
X102215382Y-43001392D01*
X102033338Y-43141081D01*
X101871081Y-43303338D01*
X101731392Y-43485382D01*
X101616657Y-43684109D01*
X101616650Y-43684123D01*
X101528842Y-43896112D01*
X101469453Y-44117759D01*
X101469451Y-44117770D01*
X101439500Y-44345258D01*
X101439500Y-44574741D01*
X101452719Y-44675140D01*
X101469452Y-44802238D01*
X101480773Y-44844488D01*
X101528842Y-45023887D01*
X101616650Y-45235876D01*
X101616657Y-45235890D01*
X101731392Y-45434617D01*
X101871081Y-45616661D01*
X101873765Y-45619722D01*
X101872214Y-45621081D01*
X101901746Y-45675165D01*
X101896762Y-45744857D01*
X101854890Y-45800790D01*
X101799979Y-45823996D01*
X101643610Y-45848763D01*
X101466917Y-45906174D01*
X101301384Y-45990519D01*
X101151091Y-46099711D01*
X101019711Y-46231091D01*
X100910519Y-46381384D01*
X100826174Y-46546917D01*
X100768763Y-46723611D01*
X100768763Y-46723612D01*
X100739700Y-46907108D01*
X100739700Y-47092892D01*
X100744481Y-47123075D01*
X100768763Y-47276388D01*
X100826174Y-47453082D01*
X100910519Y-47618615D01*
X101019711Y-47768908D01*
X101151091Y-47900288D01*
X101278035Y-47992516D01*
X101301388Y-48009483D01*
X101406864Y-48063225D01*
X101466917Y-48093825D01*
X101466919Y-48093825D01*
X101466922Y-48093827D01*
X101643612Y-48151237D01*
X101827108Y-48180300D01*
X101827109Y-48180300D01*
X102012891Y-48180300D01*
X102012892Y-48180300D01*
X102196388Y-48151237D01*
X102373078Y-48093827D01*
X102538612Y-48009483D01*
X102622998Y-47948172D01*
X102688908Y-47900288D01*
X102688910Y-47900285D01*
X102688914Y-47900283D01*
X102820283Y-47768914D01*
X102820285Y-47768910D01*
X102820288Y-47768908D01*
X102870166Y-47700256D01*
X102929483Y-47618612D01*
X103013827Y-47453078D01*
X103071237Y-47276388D01*
X103100300Y-47092892D01*
X103100300Y-46907108D01*
X103091080Y-46848895D01*
X104694700Y-46848895D01*
X104694700Y-47151104D01*
X104710986Y-47274800D01*
X104734145Y-47450707D01*
X104801034Y-47700341D01*
X104812358Y-47742603D01*
X104812361Y-47742613D01*
X104928001Y-48021792D01*
X104928006Y-48021803D01*
X105079096Y-48283496D01*
X105079107Y-48283512D01*
X105263063Y-48523249D01*
X105263069Y-48523256D01*
X105476743Y-48736930D01*
X105476749Y-48736935D01*
X105716496Y-48920899D01*
X105716503Y-48920903D01*
X105978196Y-49071993D01*
X105978201Y-49071995D01*
X105978204Y-49071997D01*
X106257396Y-49187642D01*
X106549293Y-49265855D01*
X106848903Y-49305300D01*
X106848910Y-49305300D01*
X107151090Y-49305300D01*
X107151097Y-49305300D01*
X107450707Y-49265855D01*
X107742604Y-49187642D01*
X108021796Y-49071997D01*
X108283504Y-48920899D01*
X108523251Y-48736935D01*
X108736935Y-48523251D01*
X108920899Y-48283504D01*
X109071997Y-48021796D01*
X109187642Y-47742604D01*
X109265855Y-47450707D01*
X109305300Y-47151097D01*
X109305300Y-46907108D01*
X110899700Y-46907108D01*
X110899700Y-47092892D01*
X110904481Y-47123075D01*
X110928763Y-47276388D01*
X110986174Y-47453082D01*
X111070519Y-47618615D01*
X111179711Y-47768908D01*
X111311091Y-47900288D01*
X111438035Y-47992516D01*
X111461388Y-48009483D01*
X111566864Y-48063225D01*
X111626917Y-48093825D01*
X111626919Y-48093825D01*
X111626922Y-48093827D01*
X111803612Y-48151237D01*
X111987108Y-48180300D01*
X111987109Y-48180300D01*
X112172891Y-48180300D01*
X112172892Y-48180300D01*
X112356388Y-48151237D01*
X112533078Y-48093827D01*
X112698612Y-48009483D01*
X112782998Y-47948172D01*
X112848908Y-47900288D01*
X112848910Y-47900285D01*
X112848914Y-47900283D01*
X112980283Y-47768914D01*
X112980285Y-47768910D01*
X112980288Y-47768908D01*
X113030166Y-47700256D01*
X113089483Y-47618612D01*
X113173827Y-47453078D01*
X113231237Y-47276388D01*
X113260300Y-47092892D01*
X113260300Y-46907108D01*
X113231237Y-46723612D01*
X113173827Y-46546922D01*
X113173825Y-46546919D01*
X113173825Y-46546917D01*
X113143225Y-46486864D01*
X113089483Y-46381388D01*
X113044133Y-46318968D01*
X112980288Y-46231091D01*
X112848908Y-46099711D01*
X112698615Y-45990519D01*
X112698614Y-45990518D01*
X112698612Y-45990517D01*
X112646919Y-45964178D01*
X112533082Y-45906174D01*
X112356388Y-45848763D01*
X112172892Y-45819700D01*
X111987108Y-45819700D01*
X111895360Y-45834231D01*
X111803611Y-45848763D01*
X111626917Y-45906174D01*
X111461384Y-45990519D01*
X111311091Y-46099711D01*
X111179711Y-46231091D01*
X111070519Y-46381384D01*
X110986174Y-46546917D01*
X110928763Y-46723611D01*
X110928763Y-46723612D01*
X110899700Y-46907108D01*
X109305300Y-46907108D01*
X109305300Y-46848903D01*
X109265855Y-46549293D01*
X109187642Y-46257396D01*
X109167348Y-46208403D01*
X109071998Y-45978207D01*
X109071993Y-45978196D01*
X108920903Y-45716503D01*
X108920899Y-45716496D01*
X108755249Y-45500616D01*
X108736936Y-45476750D01*
X108736930Y-45476743D01*
X108523256Y-45263069D01*
X108523249Y-45263063D01*
X108283512Y-45079107D01*
X108283510Y-45079105D01*
X108283504Y-45079101D01*
X108283499Y-45079098D01*
X108283496Y-45079096D01*
X108021803Y-44928006D01*
X108021792Y-44928001D01*
X107742613Y-44812361D01*
X107742606Y-44812359D01*
X107742604Y-44812358D01*
X107450707Y-44734145D01*
X107400636Y-44727552D01*
X107151104Y-44694700D01*
X107151097Y-44694700D01*
X106848903Y-44694700D01*
X106848895Y-44694700D01*
X106563715Y-44732246D01*
X106549293Y-44734145D01*
X106295198Y-44802229D01*
X106257396Y-44812358D01*
X106257386Y-44812361D01*
X105978207Y-44928001D01*
X105978196Y-44928006D01*
X105716503Y-45079096D01*
X105716487Y-45079107D01*
X105476750Y-45263063D01*
X105476743Y-45263069D01*
X105263069Y-45476743D01*
X105263063Y-45476750D01*
X105079107Y-45716487D01*
X105079096Y-45716503D01*
X104928006Y-45978196D01*
X104928001Y-45978207D01*
X104812361Y-46257386D01*
X104812358Y-46257396D01*
X104734146Y-46549290D01*
X104734144Y-46549301D01*
X104694700Y-46848895D01*
X103091080Y-46848895D01*
X103071237Y-46723612D01*
X103013827Y-46546922D01*
X103013824Y-46546918D01*
X103013824Y-46546915D01*
X102972347Y-46465514D01*
X102932666Y-46387636D01*
X102919770Y-46318968D01*
X102946046Y-46254228D01*
X103003152Y-46213970D01*
X103059336Y-46208403D01*
X103064453Y-46209076D01*
X103075266Y-46210500D01*
X103075273Y-46210500D01*
X103304727Y-46210500D01*
X103304734Y-46210500D01*
X103532238Y-46180548D01*
X103753887Y-46121158D01*
X103965888Y-46033344D01*
X104164612Y-45918611D01*
X104346661Y-45778919D01*
X104346665Y-45778914D01*
X104346670Y-45778911D01*
X104508911Y-45616670D01*
X104508914Y-45616665D01*
X104508919Y-45616661D01*
X104648611Y-45434612D01*
X104763344Y-45235888D01*
X104851158Y-45023887D01*
X104910548Y-44802238D01*
X104940500Y-44574734D01*
X104940500Y-44345266D01*
X104910548Y-44117762D01*
X104851158Y-43896113D01*
X104763344Y-43684112D01*
X104648611Y-43485388D01*
X104508919Y-43303339D01*
X104508918Y-43303338D01*
X104508911Y-43303330D01*
X104346670Y-43141089D01*
X104346661Y-43141081D01*
X104164617Y-43001392D01*
X103965898Y-42886661D01*
X103965893Y-42886659D01*
X103965888Y-42886656D01*
X103867045Y-42845713D01*
X103851480Y-42833170D01*
X103833297Y-42824866D01*
X103824832Y-42811695D01*
X103812643Y-42801872D01*
X103806330Y-42782904D01*
X103795523Y-42766088D01*
X103791559Y-42738524D01*
X103790579Y-42735577D01*
X103790500Y-42731153D01*
X103790500Y-42610097D01*
X103810185Y-42543058D01*
X103826819Y-42522416D01*
X104543930Y-41805305D01*
X107790000Y-41805305D01*
X107790000Y-42034694D01*
X107790001Y-42034710D01*
X107819942Y-42262137D01*
X107879318Y-42483730D01*
X107967102Y-42695659D01*
X107967106Y-42695669D01*
X108081799Y-42894324D01*
X108081805Y-42894331D01*
X108138381Y-42968064D01*
X108862421Y-42244024D01*
X108875359Y-42275258D01*
X108957437Y-42398097D01*
X109061903Y-42502563D01*
X109184742Y-42584641D01*
X109215974Y-42597578D01*
X108491934Y-43321617D01*
X108491934Y-43321618D01*
X108565666Y-43378194D01*
X108764330Y-43492893D01*
X108764340Y-43492897D01*
X108976269Y-43580681D01*
X109197862Y-43640057D01*
X109425289Y-43669998D01*
X109425306Y-43670000D01*
X109654694Y-43670000D01*
X109654710Y-43669998D01*
X109882137Y-43640057D01*
X110103730Y-43580681D01*
X110315659Y-43492897D01*
X110315668Y-43492893D01*
X110514327Y-43378197D01*
X110514334Y-43378192D01*
X110588064Y-43321617D01*
X109864025Y-42597578D01*
X109895258Y-42584641D01*
X110018097Y-42502563D01*
X110122563Y-42398097D01*
X110204641Y-42275258D01*
X110217578Y-42244025D01*
X110941617Y-42968064D01*
X110998192Y-42894334D01*
X110998197Y-42894327D01*
X111112893Y-42695668D01*
X111112897Y-42695659D01*
X111200681Y-42483730D01*
X111260057Y-42262137D01*
X111289998Y-42034710D01*
X111290000Y-42034694D01*
X111290000Y-41805305D01*
X111289998Y-41805289D01*
X111260057Y-41577862D01*
X111200681Y-41356269D01*
X111112897Y-41144340D01*
X111112893Y-41144330D01*
X110998194Y-40945666D01*
X110941618Y-40871934D01*
X110941617Y-40871934D01*
X110217577Y-41595973D01*
X110204641Y-41564742D01*
X110122563Y-41441903D01*
X110018097Y-41337437D01*
X109895258Y-41255359D01*
X109864023Y-41242421D01*
X110588064Y-40518381D01*
X110588064Y-40518380D01*
X110514331Y-40461805D01*
X110514324Y-40461799D01*
X110315669Y-40347106D01*
X110315659Y-40347102D01*
X110103730Y-40259318D01*
X109882137Y-40199942D01*
X109654710Y-40170001D01*
X109654694Y-40170000D01*
X109425306Y-40170000D01*
X109425289Y-40170001D01*
X109197862Y-40199942D01*
X108976269Y-40259318D01*
X108764340Y-40347102D01*
X108764330Y-40347106D01*
X108565673Y-40461801D01*
X108565659Y-40461810D01*
X108491934Y-40518380D01*
X109215975Y-41242421D01*
X109184742Y-41255359D01*
X109061903Y-41337437D01*
X108957437Y-41441903D01*
X108875359Y-41564742D01*
X108862421Y-41595975D01*
X108138380Y-40871934D01*
X108081810Y-40945659D01*
X108081801Y-40945673D01*
X107967106Y-41144330D01*
X107967102Y-41144340D01*
X107879318Y-41356269D01*
X107819942Y-41577862D01*
X107790001Y-41805289D01*
X107790000Y-41805305D01*
X104543930Y-41805305D01*
X110712416Y-35636819D01*
X110773739Y-35603334D01*
X110800097Y-35600500D01*
X124250903Y-35600500D01*
X124317942Y-35620185D01*
X124363697Y-35672989D01*
X124373641Y-35742147D01*
X124344616Y-35805703D01*
X124338585Y-35812179D01*
X123283823Y-36866941D01*
X122241286Y-37909478D01*
X122129481Y-38021282D01*
X122129479Y-38021285D01*
X122113037Y-38049764D01*
X122095629Y-38079917D01*
X122079361Y-38108094D01*
X122079359Y-38108096D01*
X122050425Y-38158209D01*
X122050424Y-38158210D01*
X122034544Y-38217472D01*
X122009499Y-38310943D01*
X122009499Y-38310945D01*
X122009499Y-38479046D01*
X122009500Y-38479059D01*
X122009500Y-42731153D01*
X121989815Y-42798192D01*
X121937011Y-42843947D01*
X121932963Y-42845709D01*
X121834112Y-42886656D01*
X121834109Y-42886657D01*
X121834101Y-42886661D01*
X121635382Y-43001392D01*
X121453338Y-43141081D01*
X121291081Y-43303338D01*
X121151392Y-43485382D01*
X121036657Y-43684109D01*
X121036650Y-43684123D01*
X120948842Y-43896112D01*
X120889453Y-44117759D01*
X120889451Y-44117770D01*
X120859500Y-44345258D01*
X120859500Y-44574741D01*
X120872719Y-44675140D01*
X120889452Y-44802238D01*
X120900773Y-44844488D01*
X120948842Y-45023887D01*
X121036650Y-45235876D01*
X121036657Y-45235890D01*
X121151392Y-45434617D01*
X121291081Y-45616661D01*
X121293765Y-45619722D01*
X121292214Y-45621081D01*
X121321746Y-45675165D01*
X121316762Y-45744857D01*
X121274890Y-45800790D01*
X121219979Y-45823996D01*
X121063610Y-45848763D01*
X120886917Y-45906174D01*
X120721384Y-45990519D01*
X120571091Y-46099711D01*
X120439711Y-46231091D01*
X120330519Y-46381384D01*
X120246174Y-46546917D01*
X120188763Y-46723611D01*
X120188763Y-46723612D01*
X120159700Y-46907108D01*
X120159700Y-47092892D01*
X120164481Y-47123075D01*
X120188763Y-47276388D01*
X120246174Y-47453082D01*
X120330519Y-47618615D01*
X120439711Y-47768908D01*
X120571091Y-47900288D01*
X120698035Y-47992516D01*
X120721388Y-48009483D01*
X120826864Y-48063225D01*
X120886917Y-48093825D01*
X120886919Y-48093825D01*
X120886922Y-48093827D01*
X121063612Y-48151237D01*
X121247108Y-48180300D01*
X121247109Y-48180300D01*
X121432891Y-48180300D01*
X121432892Y-48180300D01*
X121616388Y-48151237D01*
X121793078Y-48093827D01*
X121958612Y-48009483D01*
X122042998Y-47948172D01*
X122108908Y-47900288D01*
X122108910Y-47900285D01*
X122108914Y-47900283D01*
X122240283Y-47768914D01*
X122240285Y-47768910D01*
X122240288Y-47768908D01*
X122290166Y-47700256D01*
X122349483Y-47618612D01*
X122433827Y-47453078D01*
X122491237Y-47276388D01*
X122520300Y-47092892D01*
X122520300Y-46907108D01*
X122511080Y-46848895D01*
X124114700Y-46848895D01*
X124114700Y-47151104D01*
X124130986Y-47274800D01*
X124154145Y-47450707D01*
X124221034Y-47700341D01*
X124232358Y-47742603D01*
X124232361Y-47742613D01*
X124348001Y-48021792D01*
X124348006Y-48021803D01*
X124499096Y-48283496D01*
X124499107Y-48283512D01*
X124683063Y-48523249D01*
X124683069Y-48523256D01*
X124896743Y-48736930D01*
X124896749Y-48736935D01*
X125136496Y-48920899D01*
X125136503Y-48920903D01*
X125398196Y-49071993D01*
X125398201Y-49071995D01*
X125398204Y-49071997D01*
X125677396Y-49187642D01*
X125969293Y-49265855D01*
X126268903Y-49305300D01*
X126268910Y-49305300D01*
X126571090Y-49305300D01*
X126571097Y-49305300D01*
X126870707Y-49265855D01*
X127162604Y-49187642D01*
X127441796Y-49071997D01*
X127703504Y-48920899D01*
X127943251Y-48736935D01*
X128156935Y-48523251D01*
X128340899Y-48283504D01*
X128491997Y-48021796D01*
X128607642Y-47742604D01*
X128685855Y-47450707D01*
X128725300Y-47151097D01*
X128725300Y-46907108D01*
X130319700Y-46907108D01*
X130319700Y-47092892D01*
X130324481Y-47123075D01*
X130348763Y-47276388D01*
X130406174Y-47453082D01*
X130490519Y-47618615D01*
X130599711Y-47768908D01*
X130731091Y-47900288D01*
X130858035Y-47992516D01*
X130881388Y-48009483D01*
X130986864Y-48063225D01*
X131046917Y-48093825D01*
X131046919Y-48093825D01*
X131046922Y-48093827D01*
X131223612Y-48151237D01*
X131407108Y-48180300D01*
X131407109Y-48180300D01*
X131592891Y-48180300D01*
X131592892Y-48180300D01*
X131776388Y-48151237D01*
X131953078Y-48093827D01*
X132118612Y-48009483D01*
X132202998Y-47948172D01*
X132268908Y-47900288D01*
X132268910Y-47900285D01*
X132268914Y-47900283D01*
X132400283Y-47768914D01*
X132400285Y-47768910D01*
X132400288Y-47768908D01*
X132450166Y-47700256D01*
X132509483Y-47618612D01*
X132593827Y-47453078D01*
X132651237Y-47276388D01*
X132680300Y-47092892D01*
X132680300Y-46907108D01*
X132651237Y-46723612D01*
X132593827Y-46546922D01*
X132593825Y-46546919D01*
X132593825Y-46546917D01*
X132563225Y-46486864D01*
X132509483Y-46381388D01*
X132464133Y-46318968D01*
X132400288Y-46231091D01*
X132268908Y-46099711D01*
X132118615Y-45990519D01*
X132118614Y-45990518D01*
X132118612Y-45990517D01*
X132066919Y-45964178D01*
X131953082Y-45906174D01*
X131776388Y-45848763D01*
X131592892Y-45819700D01*
X131407108Y-45819700D01*
X131315360Y-45834231D01*
X131223611Y-45848763D01*
X131046917Y-45906174D01*
X130881384Y-45990519D01*
X130731091Y-46099711D01*
X130599711Y-46231091D01*
X130490519Y-46381384D01*
X130406174Y-46546917D01*
X130348763Y-46723611D01*
X130348763Y-46723612D01*
X130319700Y-46907108D01*
X128725300Y-46907108D01*
X128725300Y-46848903D01*
X128685855Y-46549293D01*
X128607642Y-46257396D01*
X128587348Y-46208403D01*
X128491998Y-45978207D01*
X128491993Y-45978196D01*
X128340903Y-45716503D01*
X128340899Y-45716496D01*
X128175249Y-45500616D01*
X128156936Y-45476750D01*
X128156930Y-45476743D01*
X127943256Y-45263069D01*
X127943249Y-45263063D01*
X127703512Y-45079107D01*
X127703510Y-45079105D01*
X127703504Y-45079101D01*
X127703499Y-45079098D01*
X127703496Y-45079096D01*
X127441803Y-44928006D01*
X127441792Y-44928001D01*
X127162613Y-44812361D01*
X127162606Y-44812359D01*
X127162604Y-44812358D01*
X126870707Y-44734145D01*
X126820636Y-44727552D01*
X126571104Y-44694700D01*
X126571097Y-44694700D01*
X126268903Y-44694700D01*
X126268895Y-44694700D01*
X125983715Y-44732246D01*
X125969293Y-44734145D01*
X125715198Y-44802229D01*
X125677396Y-44812358D01*
X125677386Y-44812361D01*
X125398207Y-44928001D01*
X125398196Y-44928006D01*
X125136503Y-45079096D01*
X125136487Y-45079107D01*
X124896750Y-45263063D01*
X124896743Y-45263069D01*
X124683069Y-45476743D01*
X124683063Y-45476750D01*
X124499107Y-45716487D01*
X124499096Y-45716503D01*
X124348006Y-45978196D01*
X124348001Y-45978207D01*
X124232361Y-46257386D01*
X124232358Y-46257396D01*
X124154146Y-46549290D01*
X124154144Y-46549301D01*
X124114700Y-46848895D01*
X122511080Y-46848895D01*
X122491237Y-46723612D01*
X122433827Y-46546922D01*
X122433824Y-46546918D01*
X122433824Y-46546915D01*
X122392347Y-46465514D01*
X122352666Y-46387636D01*
X122339770Y-46318968D01*
X122366046Y-46254228D01*
X122423152Y-46213970D01*
X122479336Y-46208403D01*
X122484453Y-46209076D01*
X122495266Y-46210500D01*
X122495273Y-46210500D01*
X122724727Y-46210500D01*
X122724734Y-46210500D01*
X122952238Y-46180548D01*
X123173887Y-46121158D01*
X123385888Y-46033344D01*
X123584612Y-45918611D01*
X123766661Y-45778919D01*
X123766665Y-45778914D01*
X123766670Y-45778911D01*
X123928911Y-45616670D01*
X123928914Y-45616665D01*
X123928919Y-45616661D01*
X124068611Y-45434612D01*
X124183344Y-45235888D01*
X124271158Y-45023887D01*
X124330548Y-44802238D01*
X124360500Y-44574734D01*
X124360500Y-44345266D01*
X124330548Y-44117762D01*
X124271158Y-43896113D01*
X124183344Y-43684112D01*
X124068611Y-43485388D01*
X123928919Y-43303339D01*
X123928918Y-43303338D01*
X123928911Y-43303330D01*
X123766670Y-43141089D01*
X123766661Y-43141081D01*
X123584617Y-43001392D01*
X123385898Y-42886661D01*
X123385893Y-42886659D01*
X123385888Y-42886656D01*
X123287045Y-42845713D01*
X123232643Y-42801872D01*
X123210579Y-42735577D01*
X123210500Y-42731153D01*
X123210500Y-41805305D01*
X127210000Y-41805305D01*
X127210000Y-42034694D01*
X127210001Y-42034710D01*
X127239942Y-42262137D01*
X127299318Y-42483730D01*
X127387102Y-42695659D01*
X127387106Y-42695669D01*
X127501799Y-42894324D01*
X127501805Y-42894331D01*
X127558381Y-42968064D01*
X128282421Y-42244024D01*
X128295359Y-42275258D01*
X128377437Y-42398097D01*
X128481903Y-42502563D01*
X128604742Y-42584641D01*
X128635974Y-42597578D01*
X127911934Y-43321617D01*
X127911934Y-43321618D01*
X127985666Y-43378194D01*
X128184330Y-43492893D01*
X128184340Y-43492897D01*
X128396269Y-43580681D01*
X128617862Y-43640057D01*
X128845289Y-43669998D01*
X128845306Y-43670000D01*
X129074694Y-43670000D01*
X129074710Y-43669998D01*
X129302137Y-43640057D01*
X129523730Y-43580681D01*
X129735659Y-43492897D01*
X129735668Y-43492893D01*
X129934327Y-43378197D01*
X129934334Y-43378192D01*
X130008064Y-43321617D01*
X129284025Y-42597578D01*
X129315258Y-42584641D01*
X129438097Y-42502563D01*
X129542563Y-42398097D01*
X129624641Y-42275258D01*
X129637578Y-42244025D01*
X130361617Y-42968064D01*
X130418192Y-42894334D01*
X130418197Y-42894327D01*
X130532893Y-42695668D01*
X130532897Y-42695659D01*
X130620681Y-42483730D01*
X130680057Y-42262137D01*
X130709998Y-42034710D01*
X130710000Y-42034694D01*
X130710000Y-41805305D01*
X130709998Y-41805289D01*
X130680057Y-41577862D01*
X130620681Y-41356269D01*
X130532897Y-41144340D01*
X130532893Y-41144330D01*
X130418194Y-40945666D01*
X130361618Y-40871934D01*
X130361617Y-40871934D01*
X129637577Y-41595973D01*
X129624641Y-41564742D01*
X129542563Y-41441903D01*
X129438097Y-41337437D01*
X129315258Y-41255359D01*
X129284023Y-41242421D01*
X130008064Y-40518381D01*
X130008064Y-40518380D01*
X129934331Y-40461805D01*
X129934324Y-40461799D01*
X129735669Y-40347106D01*
X129735659Y-40347102D01*
X129523730Y-40259318D01*
X129302137Y-40199942D01*
X129074710Y-40170001D01*
X129074694Y-40170000D01*
X128845306Y-40170000D01*
X128845289Y-40170001D01*
X128617862Y-40199942D01*
X128396269Y-40259318D01*
X128184340Y-40347102D01*
X128184330Y-40347106D01*
X127985673Y-40461801D01*
X127985659Y-40461810D01*
X127911934Y-40518380D01*
X128635975Y-41242421D01*
X128604742Y-41255359D01*
X128481903Y-41337437D01*
X128377437Y-41441903D01*
X128295359Y-41564742D01*
X128282421Y-41595975D01*
X127558380Y-40871934D01*
X127501810Y-40945659D01*
X127501801Y-40945673D01*
X127387106Y-41144330D01*
X127387102Y-41144340D01*
X127299318Y-41356269D01*
X127239942Y-41577862D01*
X127210001Y-41805289D01*
X127210000Y-41805305D01*
X123210500Y-41805305D01*
X123210500Y-38865186D01*
X133769897Y-38865186D01*
X133769897Y-39134813D01*
X133800083Y-39402719D01*
X133800084Y-39402728D01*
X133800085Y-39402732D01*
X133808591Y-39440000D01*
X133860081Y-39665594D01*
X133860084Y-39665602D01*
X133949131Y-39920082D01*
X134066111Y-40162994D01*
X134091419Y-40203271D01*
X134209559Y-40391289D01*
X134265794Y-40461805D01*
X134371651Y-40594547D01*
X134377663Y-40602085D01*
X134568312Y-40792734D01*
X134779108Y-40960838D01*
X135007400Y-41104284D01*
X135007402Y-41104285D01*
X135033782Y-41116989D01*
X135250318Y-41221267D01*
X135347748Y-41255359D01*
X135504794Y-41310312D01*
X135504802Y-41310315D01*
X135504805Y-41310315D01*
X135504806Y-41310316D01*
X135767665Y-41370312D01*
X136035584Y-41400499D01*
X136035585Y-41400500D01*
X136035588Y-41400500D01*
X136305209Y-41400500D01*
X136305209Y-41400499D01*
X136573129Y-41370312D01*
X136835988Y-41310316D01*
X137090476Y-41221267D01*
X137333394Y-41104284D01*
X137561686Y-40960838D01*
X137772482Y-40792734D01*
X137963131Y-40602085D01*
X138131235Y-40391289D01*
X138274681Y-40162997D01*
X138391664Y-39920079D01*
X138480713Y-39665591D01*
X138540709Y-39402732D01*
X138570897Y-39134809D01*
X138570897Y-38865191D01*
X138540709Y-38597268D01*
X138480713Y-38334409D01*
X138471795Y-38308924D01*
X138445833Y-38234728D01*
X138391664Y-38079921D01*
X138274681Y-37837003D01*
X138131235Y-37608711D01*
X137963131Y-37397915D01*
X137772482Y-37207266D01*
X137561686Y-37039162D01*
X137333394Y-36895716D01*
X137333391Y-36895714D01*
X137090479Y-36778734D01*
X136835999Y-36689687D01*
X136835991Y-36689684D01*
X136638843Y-36644687D01*
X136573129Y-36629688D01*
X136573125Y-36629687D01*
X136573116Y-36629686D01*
X136305210Y-36599500D01*
X136305206Y-36599500D01*
X136035588Y-36599500D01*
X136035583Y-36599500D01*
X135767677Y-36629686D01*
X135767665Y-36629688D01*
X135504802Y-36689684D01*
X135504794Y-36689687D01*
X135250314Y-36778734D01*
X135007402Y-36895714D01*
X134779109Y-37039161D01*
X134568312Y-37207265D01*
X134377662Y-37397915D01*
X134209558Y-37608712D01*
X134066111Y-37837005D01*
X133949131Y-38079917D01*
X133860084Y-38334397D01*
X133860081Y-38334405D01*
X133800085Y-38597268D01*
X133800083Y-38597280D01*
X133769897Y-38865186D01*
X123210500Y-38865186D01*
X123210500Y-38690097D01*
X123230185Y-38623058D01*
X123246819Y-38602416D01*
X125712416Y-36136819D01*
X125773739Y-36103334D01*
X125800097Y-36100500D01*
X154199903Y-36100500D01*
X154266942Y-36120185D01*
X154287584Y-36136819D01*
X156374960Y-38224195D01*
X156380711Y-38234728D01*
X156389969Y-38242372D01*
X156397147Y-38264829D01*
X156408445Y-38285518D01*
X156408120Y-38299153D01*
X156411244Y-38308924D01*
X156407054Y-38343968D01*
X156381536Y-38439206D01*
X156345172Y-38498867D01*
X156282325Y-38529397D01*
X156212949Y-38521103D01*
X156174080Y-38494795D01*
X155987590Y-38308305D01*
X155987588Y-38308302D01*
X155868717Y-38189431D01*
X155868716Y-38189430D01*
X155781904Y-38139310D01*
X155781904Y-38139309D01*
X155781900Y-38139308D01*
X155731785Y-38110373D01*
X155579057Y-38069449D01*
X155470046Y-38069449D01*
X155403007Y-38049764D01*
X155382365Y-38033130D01*
X154987590Y-37638355D01*
X154987588Y-37638352D01*
X154868717Y-37519481D01*
X154868716Y-37519480D01*
X154781904Y-37469360D01*
X154781904Y-37469359D01*
X154781900Y-37469358D01*
X154731785Y-37440423D01*
X154579057Y-37399499D01*
X154420943Y-37399499D01*
X154413347Y-37399499D01*
X154413331Y-37399500D01*
X144579057Y-37399500D01*
X144420942Y-37399500D01*
X144268215Y-37440423D01*
X144268214Y-37440423D01*
X144268212Y-37440424D01*
X144268209Y-37440425D01*
X144218096Y-37469359D01*
X144218095Y-37469360D01*
X144174689Y-37494420D01*
X144131285Y-37519479D01*
X144131282Y-37519481D01*
X141789479Y-39861284D01*
X141784267Y-39870313D01*
X141766839Y-39900500D01*
X141710423Y-39998215D01*
X141669499Y-40150943D01*
X141669499Y-40150945D01*
X141669499Y-40319046D01*
X141669500Y-40319059D01*
X141669500Y-42731153D01*
X141649815Y-42798192D01*
X141597011Y-42843947D01*
X141592963Y-42845709D01*
X141494112Y-42886656D01*
X141494109Y-42886657D01*
X141494101Y-42886661D01*
X141295382Y-43001392D01*
X141113338Y-43141081D01*
X140951081Y-43303338D01*
X140811392Y-43485382D01*
X140696657Y-43684109D01*
X140696650Y-43684123D01*
X140608842Y-43896112D01*
X140549453Y-44117759D01*
X140549451Y-44117770D01*
X140519500Y-44345258D01*
X140519500Y-44574741D01*
X140532719Y-44675140D01*
X140549452Y-44802238D01*
X140560773Y-44844488D01*
X140608842Y-45023887D01*
X140696650Y-45235876D01*
X140696657Y-45235890D01*
X140811392Y-45434617D01*
X140951081Y-45616661D01*
X140953765Y-45619722D01*
X140952214Y-45621081D01*
X140981746Y-45675165D01*
X140976762Y-45744857D01*
X140934890Y-45800790D01*
X140879979Y-45823996D01*
X140723610Y-45848763D01*
X140546917Y-45906174D01*
X140381384Y-45990519D01*
X140231091Y-46099711D01*
X140099711Y-46231091D01*
X139990519Y-46381384D01*
X139906174Y-46546917D01*
X139848763Y-46723611D01*
X139848763Y-46723612D01*
X139819700Y-46907108D01*
X139819700Y-47092892D01*
X139824481Y-47123075D01*
X139848763Y-47276388D01*
X139906174Y-47453082D01*
X139990519Y-47618615D01*
X140099711Y-47768908D01*
X140231091Y-47900288D01*
X140358035Y-47992516D01*
X140381388Y-48009483D01*
X140486864Y-48063225D01*
X140546917Y-48093825D01*
X140546919Y-48093825D01*
X140546922Y-48093827D01*
X140723612Y-48151237D01*
X140907108Y-48180300D01*
X140907109Y-48180300D01*
X141092891Y-48180300D01*
X141092892Y-48180300D01*
X141276388Y-48151237D01*
X141453078Y-48093827D01*
X141618612Y-48009483D01*
X141702998Y-47948172D01*
X141768908Y-47900288D01*
X141768910Y-47900285D01*
X141768914Y-47900283D01*
X141900283Y-47768914D01*
X141900285Y-47768910D01*
X141900288Y-47768908D01*
X141950166Y-47700256D01*
X142009483Y-47618612D01*
X142093827Y-47453078D01*
X142151237Y-47276388D01*
X142180300Y-47092892D01*
X142180300Y-46907108D01*
X142171080Y-46848895D01*
X143774700Y-46848895D01*
X143774700Y-47151104D01*
X143790986Y-47274800D01*
X143814145Y-47450707D01*
X143881034Y-47700341D01*
X143892358Y-47742603D01*
X143892361Y-47742613D01*
X144008001Y-48021792D01*
X144008006Y-48021803D01*
X144159096Y-48283496D01*
X144159107Y-48283512D01*
X144343063Y-48523249D01*
X144343069Y-48523256D01*
X144556743Y-48736930D01*
X144556749Y-48736935D01*
X144796496Y-48920899D01*
X144796503Y-48920903D01*
X145058196Y-49071993D01*
X145058201Y-49071995D01*
X145058204Y-49071997D01*
X145337396Y-49187642D01*
X145629293Y-49265855D01*
X145928903Y-49305300D01*
X145928910Y-49305300D01*
X146231090Y-49305300D01*
X146231097Y-49305300D01*
X146530707Y-49265855D01*
X146822604Y-49187642D01*
X147101796Y-49071997D01*
X147363504Y-48920899D01*
X147603251Y-48736935D01*
X147816935Y-48523251D01*
X148000899Y-48283504D01*
X148151997Y-48021796D01*
X148267642Y-47742604D01*
X148345855Y-47450707D01*
X148385300Y-47151097D01*
X148385300Y-46907108D01*
X149979700Y-46907108D01*
X149979700Y-47092892D01*
X149984481Y-47123075D01*
X150008763Y-47276388D01*
X150066174Y-47453082D01*
X150150519Y-47618615D01*
X150259711Y-47768908D01*
X150391091Y-47900288D01*
X150518035Y-47992516D01*
X150541388Y-48009483D01*
X150646864Y-48063225D01*
X150706917Y-48093825D01*
X150706919Y-48093825D01*
X150706922Y-48093827D01*
X150883612Y-48151237D01*
X151067108Y-48180300D01*
X151067109Y-48180300D01*
X151252891Y-48180300D01*
X151252892Y-48180300D01*
X151436388Y-48151237D01*
X151613078Y-48093827D01*
X151778612Y-48009483D01*
X151862998Y-47948172D01*
X151928908Y-47900288D01*
X151928910Y-47900285D01*
X151928914Y-47900283D01*
X152060283Y-47768914D01*
X152060285Y-47768910D01*
X152060288Y-47768908D01*
X152110166Y-47700256D01*
X152169483Y-47618612D01*
X152253827Y-47453078D01*
X152311237Y-47276388D01*
X152340300Y-47092892D01*
X152340300Y-46907108D01*
X152311237Y-46723612D01*
X152253827Y-46546922D01*
X152253825Y-46546919D01*
X152253825Y-46546917D01*
X152223225Y-46486864D01*
X152169483Y-46381388D01*
X152124133Y-46318968D01*
X152060288Y-46231091D01*
X151928908Y-46099711D01*
X151778615Y-45990519D01*
X151778614Y-45990518D01*
X151778612Y-45990517D01*
X151726919Y-45964178D01*
X151613082Y-45906174D01*
X151436388Y-45848763D01*
X151252892Y-45819700D01*
X151067108Y-45819700D01*
X150975360Y-45834231D01*
X150883611Y-45848763D01*
X150706917Y-45906174D01*
X150541384Y-45990519D01*
X150391091Y-46099711D01*
X150259711Y-46231091D01*
X150150519Y-46381384D01*
X150066174Y-46546917D01*
X150008763Y-46723611D01*
X150008763Y-46723612D01*
X149979700Y-46907108D01*
X148385300Y-46907108D01*
X148385300Y-46848903D01*
X148345855Y-46549293D01*
X148267642Y-46257396D01*
X148247348Y-46208403D01*
X148151998Y-45978207D01*
X148151993Y-45978196D01*
X148000903Y-45716503D01*
X148000899Y-45716496D01*
X147835249Y-45500616D01*
X147816936Y-45476750D01*
X147816930Y-45476743D01*
X147603256Y-45263069D01*
X147603249Y-45263063D01*
X147363512Y-45079107D01*
X147363510Y-45079105D01*
X147363504Y-45079101D01*
X147363499Y-45079098D01*
X147363496Y-45079096D01*
X147101803Y-44928006D01*
X147101792Y-44928001D01*
X146822613Y-44812361D01*
X146822606Y-44812359D01*
X146822604Y-44812358D01*
X146530707Y-44734145D01*
X146480636Y-44727552D01*
X146231104Y-44694700D01*
X146231097Y-44694700D01*
X145928903Y-44694700D01*
X145928895Y-44694700D01*
X145643715Y-44732246D01*
X145629293Y-44734145D01*
X145375198Y-44802229D01*
X145337396Y-44812358D01*
X145337386Y-44812361D01*
X145058207Y-44928001D01*
X145058196Y-44928006D01*
X144796503Y-45079096D01*
X144796487Y-45079107D01*
X144556750Y-45263063D01*
X144556743Y-45263069D01*
X144343069Y-45476743D01*
X144343063Y-45476750D01*
X144159107Y-45716487D01*
X144159096Y-45716503D01*
X144008006Y-45978196D01*
X144008001Y-45978207D01*
X143892361Y-46257386D01*
X143892358Y-46257396D01*
X143814146Y-46549290D01*
X143814144Y-46549301D01*
X143774700Y-46848895D01*
X142171080Y-46848895D01*
X142151237Y-46723612D01*
X142093827Y-46546922D01*
X142093824Y-46546918D01*
X142093824Y-46546915D01*
X142052347Y-46465514D01*
X142012666Y-46387636D01*
X141999770Y-46318968D01*
X142026046Y-46254228D01*
X142083152Y-46213970D01*
X142139336Y-46208403D01*
X142144453Y-46209076D01*
X142155266Y-46210500D01*
X142155273Y-46210500D01*
X142384727Y-46210500D01*
X142384734Y-46210500D01*
X142612238Y-46180548D01*
X142833887Y-46121158D01*
X143045888Y-46033344D01*
X143244612Y-45918611D01*
X143426661Y-45778919D01*
X143426665Y-45778914D01*
X143426670Y-45778911D01*
X143588911Y-45616670D01*
X143588914Y-45616665D01*
X143588919Y-45616661D01*
X143728611Y-45434612D01*
X143843344Y-45235888D01*
X143931158Y-45023887D01*
X143990548Y-44802238D01*
X144020500Y-44574734D01*
X144020500Y-44345266D01*
X143990548Y-44117762D01*
X143931158Y-43896113D01*
X143843344Y-43684112D01*
X143728611Y-43485388D01*
X143588919Y-43303339D01*
X143588918Y-43303338D01*
X143588911Y-43303330D01*
X143426670Y-43141089D01*
X143426661Y-43141081D01*
X143244617Y-43001392D01*
X143045898Y-42886661D01*
X143045893Y-42886659D01*
X143045888Y-42886656D01*
X142947045Y-42845713D01*
X142892643Y-42801872D01*
X142870579Y-42735577D01*
X142870500Y-42731153D01*
X142870500Y-41805305D01*
X146870000Y-41805305D01*
X146870000Y-42034694D01*
X146870001Y-42034710D01*
X146899942Y-42262137D01*
X146959318Y-42483730D01*
X147047102Y-42695659D01*
X147047106Y-42695669D01*
X147161799Y-42894324D01*
X147161805Y-42894331D01*
X147218381Y-42968064D01*
X147942421Y-42244024D01*
X147955359Y-42275258D01*
X148037437Y-42398097D01*
X148141903Y-42502563D01*
X148264742Y-42584641D01*
X148295974Y-42597578D01*
X147571934Y-43321617D01*
X147571934Y-43321618D01*
X147645666Y-43378194D01*
X147844330Y-43492893D01*
X147844340Y-43492897D01*
X148056269Y-43580681D01*
X148277862Y-43640057D01*
X148505289Y-43669998D01*
X148505306Y-43670000D01*
X148734694Y-43670000D01*
X148734710Y-43669998D01*
X148962137Y-43640057D01*
X149183730Y-43580681D01*
X149395659Y-43492897D01*
X149395668Y-43492893D01*
X149594327Y-43378197D01*
X149594334Y-43378192D01*
X149668064Y-43321617D01*
X148944025Y-42597578D01*
X148975258Y-42584641D01*
X149098097Y-42502563D01*
X149202563Y-42398097D01*
X149284641Y-42275258D01*
X149297578Y-42244025D01*
X150021617Y-42968064D01*
X150078192Y-42894334D01*
X150078197Y-42894327D01*
X150192893Y-42695668D01*
X150192897Y-42695659D01*
X150280681Y-42483730D01*
X150340057Y-42262137D01*
X150369998Y-42034710D01*
X150370000Y-42034694D01*
X150370000Y-41805305D01*
X150369998Y-41805289D01*
X150340057Y-41577862D01*
X150280681Y-41356269D01*
X150192897Y-41144340D01*
X150192893Y-41144330D01*
X150078194Y-40945666D01*
X150021618Y-40871934D01*
X150021617Y-40871934D01*
X149297577Y-41595973D01*
X149284641Y-41564742D01*
X149202563Y-41441903D01*
X149098097Y-41337437D01*
X148975258Y-41255359D01*
X148944023Y-41242421D01*
X149668064Y-40518381D01*
X149668064Y-40518380D01*
X149594331Y-40461805D01*
X149594324Y-40461799D01*
X149395669Y-40347106D01*
X149395659Y-40347102D01*
X149183730Y-40259318D01*
X148962137Y-40199942D01*
X148734710Y-40170001D01*
X148734694Y-40170000D01*
X148505306Y-40170000D01*
X148505289Y-40170001D01*
X148277862Y-40199942D01*
X148056269Y-40259318D01*
X147844340Y-40347102D01*
X147844330Y-40347106D01*
X147645673Y-40461801D01*
X147645659Y-40461810D01*
X147571934Y-40518380D01*
X148295975Y-41242421D01*
X148264742Y-41255359D01*
X148141903Y-41337437D01*
X148037437Y-41441903D01*
X147955359Y-41564742D01*
X147942421Y-41595975D01*
X147218380Y-40871934D01*
X147161810Y-40945659D01*
X147161801Y-40945673D01*
X147047106Y-41144330D01*
X147047102Y-41144340D01*
X146959318Y-41356269D01*
X146899942Y-41577862D01*
X146870001Y-41805289D01*
X146870000Y-41805305D01*
X142870500Y-41805305D01*
X142870500Y-40530097D01*
X142890185Y-40463058D01*
X142906819Y-40442416D01*
X144712416Y-38636819D01*
X144773739Y-38603334D01*
X144800097Y-38600500D01*
X154199903Y-38600500D01*
X154266942Y-38620185D01*
X154287584Y-38636819D01*
X154685089Y-39034324D01*
X154685099Y-39034335D01*
X154689429Y-39038665D01*
X154689430Y-39038666D01*
X154801234Y-39150470D01*
X154801236Y-39150471D01*
X154801240Y-39150474D01*
X154877313Y-39194394D01*
X154938166Y-39229527D01*
X155049969Y-39259484D01*
X155090892Y-39270450D01*
X155090893Y-39270450D01*
X155205064Y-39270450D01*
X155210216Y-39270880D01*
X155238177Y-39281688D01*
X155266942Y-39290135D01*
X155273317Y-39295272D01*
X155275386Y-39296072D01*
X155276925Y-39298179D01*
X155287584Y-39306769D01*
X156496414Y-40515599D01*
X156529899Y-40576922D01*
X156524915Y-40646614D01*
X156505101Y-40681314D01*
X156500614Y-40686854D01*
X156414680Y-40855512D01*
X156365687Y-41038356D01*
X156365687Y-41038357D01*
X156359500Y-41116973D01*
X156359500Y-42043010D01*
X156359501Y-42043029D01*
X156365687Y-42121643D01*
X156393098Y-42223943D01*
X156414680Y-42304488D01*
X156414715Y-42304556D01*
X156500614Y-42473146D01*
X156500679Y-42473226D01*
X156619743Y-42620257D01*
X156766851Y-42739383D01*
X156766855Y-42739386D01*
X156767114Y-42739518D01*
X156767237Y-42739634D01*
X156772304Y-42742925D01*
X156771702Y-42743851D01*
X156817908Y-42787495D01*
X156834700Y-42855317D01*
X156812159Y-42921451D01*
X156771850Y-42956377D01*
X156772304Y-42957075D01*
X156767281Y-42960336D01*
X156767114Y-42960482D01*
X156766855Y-42960613D01*
X156619743Y-43079743D01*
X156500614Y-43226853D01*
X156414680Y-43395512D01*
X156365687Y-43578356D01*
X156365687Y-43578357D01*
X156359500Y-43656973D01*
X156359500Y-44583010D01*
X156359501Y-44583029D01*
X156365687Y-44661643D01*
X156393098Y-44763943D01*
X156414680Y-44844488D01*
X156414715Y-44844556D01*
X156500614Y-45013146D01*
X156500679Y-45013226D01*
X156619743Y-45160257D01*
X156713142Y-45235890D01*
X156766855Y-45279386D01*
X156767114Y-45279518D01*
X156767237Y-45279634D01*
X156772304Y-45282925D01*
X156771702Y-45283851D01*
X156817908Y-45327495D01*
X156834700Y-45395317D01*
X156812159Y-45461451D01*
X156771850Y-45496377D01*
X156772304Y-45497075D01*
X156767281Y-45500336D01*
X156767114Y-45500482D01*
X156766855Y-45500613D01*
X156619743Y-45619743D01*
X156500614Y-45766853D01*
X156414680Y-45935512D01*
X156365687Y-46118356D01*
X156365687Y-46118357D01*
X156359500Y-46196973D01*
X156359500Y-47123010D01*
X156359501Y-47123029D01*
X156365687Y-47201643D01*
X156385715Y-47276388D01*
X156414680Y-47384488D01*
X156414715Y-47384556D01*
X156500614Y-47553146D01*
X156500679Y-47553226D01*
X156619743Y-47700257D01*
X156766847Y-47819380D01*
X156766851Y-47819383D01*
X156767018Y-47819468D01*
X156767099Y-47819544D01*
X156772304Y-47822925D01*
X156771686Y-47823875D01*
X156817820Y-47867436D01*
X156834623Y-47935255D01*
X156812093Y-48001393D01*
X156771855Y-48036266D01*
X156772323Y-48036986D01*
X156767145Y-48040348D01*
X156767043Y-48040437D01*
X156766883Y-48040518D01*
X156766873Y-48040524D01*
X156619758Y-48159658D01*
X156500624Y-48306773D01*
X156500623Y-48306775D01*
X156414684Y-48475444D01*
X156365687Y-48658298D01*
X156359500Y-48736919D01*
X156359500Y-49663064D01*
X156359501Y-49663083D01*
X156365687Y-49741699D01*
X156365687Y-49741702D01*
X156365688Y-49741703D01*
X156414684Y-49924556D01*
X156444062Y-49982214D01*
X156500623Y-50093224D01*
X156500624Y-50093226D01*
X156566451Y-50174514D01*
X156619758Y-50240342D01*
X156701046Y-50306168D01*
X156766873Y-50359475D01*
X156766875Y-50359476D01*
X156766953Y-50359516D01*
X156766989Y-50359550D01*
X156772323Y-50363014D01*
X156771689Y-50363989D01*
X156817749Y-50407491D01*
X156834543Y-50475312D01*
X156812005Y-50541447D01*
X156771843Y-50576246D01*
X156772323Y-50576986D01*
X156767002Y-50580440D01*
X156766953Y-50580484D01*
X156766873Y-50580524D01*
X156619758Y-50699658D01*
X156500624Y-50846773D01*
X156500623Y-50846775D01*
X156414684Y-51015444D01*
X156365687Y-51198298D01*
X156359500Y-51276919D01*
X156359500Y-51553251D01*
X156339815Y-51620290D01*
X156287011Y-51666045D01*
X156217853Y-51675989D01*
X156211310Y-51674869D01*
X156113360Y-51655386D01*
X156083767Y-51649500D01*
X155916233Y-51649500D01*
X155916228Y-51649500D01*
X155751925Y-51682182D01*
X155751917Y-51682184D01*
X155597139Y-51746295D01*
X155457837Y-51839373D01*
X155339373Y-51957837D01*
X155246295Y-52097139D01*
X155182184Y-52251917D01*
X155182182Y-52251925D01*
X155149500Y-52416228D01*
X155149500Y-52583771D01*
X155182182Y-52748074D01*
X155182184Y-52748082D01*
X155246295Y-52902860D01*
X155339373Y-53042162D01*
X155457837Y-53160626D01*
X155550494Y-53222537D01*
X155597137Y-53253703D01*
X155597138Y-53253703D01*
X155597139Y-53253704D01*
X155632201Y-53268227D01*
X155751918Y-53317816D01*
X155916228Y-53350499D01*
X155916232Y-53350500D01*
X155916233Y-53350500D01*
X155949902Y-53350500D01*
X156016941Y-53370185D01*
X156037583Y-53386819D01*
X156311185Y-53660421D01*
X156314951Y-53663311D01*
X156356153Y-53719739D01*
X156363081Y-53771412D01*
X156359500Y-53816914D01*
X156359500Y-54743064D01*
X156359501Y-54743083D01*
X156365687Y-54821699D01*
X156365688Y-54821701D01*
X156365688Y-54821703D01*
X156414684Y-55004556D01*
X156444062Y-55062214D01*
X156500623Y-55173224D01*
X156500624Y-55173226D01*
X156566451Y-55254514D01*
X156619758Y-55320342D01*
X156701046Y-55386168D01*
X156766873Y-55439475D01*
X156766875Y-55439476D01*
X156766953Y-55439516D01*
X156766989Y-55439550D01*
X156772323Y-55443014D01*
X156771689Y-55443989D01*
X156817749Y-55487491D01*
X156834543Y-55555312D01*
X156812005Y-55621447D01*
X156771843Y-55656246D01*
X156772323Y-55656986D01*
X156767002Y-55660440D01*
X156766953Y-55660484D01*
X156766873Y-55660524D01*
X156619757Y-55779658D01*
X156529111Y-55891596D01*
X156471624Y-55931307D01*
X156401793Y-55933634D01*
X156341789Y-55897838D01*
X156311855Y-55841151D01*
X156310316Y-55834409D01*
X156310312Y-55834397D01*
X156288145Y-55771049D01*
X156221267Y-55579921D01*
X156104284Y-55337003D01*
X155960838Y-55108711D01*
X155792734Y-54897915D01*
X155602085Y-54707266D01*
X155391289Y-54539162D01*
X155162997Y-54395716D01*
X155162994Y-54395714D01*
X154920082Y-54278734D01*
X154665602Y-54189687D01*
X154665594Y-54189684D01*
X154468446Y-54144687D01*
X154402732Y-54129688D01*
X154402728Y-54129687D01*
X154402719Y-54129686D01*
X154134813Y-54099500D01*
X154134809Y-54099500D01*
X153865191Y-54099500D01*
X153865186Y-54099500D01*
X153597280Y-54129686D01*
X153597268Y-54129688D01*
X153334405Y-54189684D01*
X153334397Y-54189687D01*
X153079917Y-54278734D01*
X152837005Y-54395714D01*
X152608712Y-54539161D01*
X152397915Y-54707265D01*
X152207265Y-54897915D01*
X152039161Y-55108712D01*
X151895714Y-55337005D01*
X151778734Y-55579917D01*
X151689687Y-55834397D01*
X151689684Y-55834405D01*
X151629688Y-56097268D01*
X151629686Y-56097280D01*
X151599500Y-56365186D01*
X151599500Y-56634813D01*
X151629686Y-56902719D01*
X151629688Y-56902731D01*
X151689684Y-57165594D01*
X151689687Y-57165602D01*
X151778734Y-57420082D01*
X151895714Y-57662994D01*
X151895716Y-57662997D01*
X152039162Y-57891289D01*
X152207266Y-58102085D01*
X152397915Y-58292734D01*
X152608711Y-58460838D01*
X152837003Y-58604284D01*
X153079921Y-58721267D01*
X153271049Y-58788145D01*
X153334397Y-58810312D01*
X153334405Y-58810315D01*
X153334408Y-58810315D01*
X153334409Y-58810316D01*
X153597268Y-58870312D01*
X153597277Y-58870313D01*
X153597282Y-58870314D01*
X153605854Y-58871280D01*
X153670268Y-58898346D01*
X153709823Y-58955941D01*
X153711961Y-59025778D01*
X153676003Y-59085684D01*
X153613365Y-59116640D01*
X153591971Y-59118500D01*
X97408029Y-59118500D01*
X97340990Y-59098815D01*
X97295235Y-59046011D01*
X97285291Y-58976853D01*
X97314316Y-58913297D01*
X97373094Y-58875523D01*
X97394146Y-58871280D01*
X97402717Y-58870314D01*
X97402720Y-58870313D01*
X97402732Y-58870312D01*
X97665591Y-58810316D01*
X97920079Y-58721267D01*
X98162997Y-58604284D01*
X98391289Y-58460838D01*
X98602085Y-58292734D01*
X98792734Y-58102085D01*
X98960838Y-57891289D01*
X99104284Y-57662997D01*
X99221267Y-57420079D01*
X99310316Y-57165591D01*
X99370312Y-56902732D01*
X99400500Y-56634809D01*
X99400500Y-56365191D01*
X99370312Y-56097268D01*
X99310316Y-55834409D01*
X99221267Y-55579921D01*
X99104284Y-55337003D01*
X98960838Y-55108711D01*
X98792734Y-54897915D01*
X98602085Y-54707266D01*
X98391289Y-54539162D01*
X98162997Y-54395716D01*
X98162994Y-54395714D01*
X97920082Y-54278734D01*
X97665602Y-54189687D01*
X97665594Y-54189684D01*
X97468446Y-54144687D01*
X97402732Y-54129688D01*
X97402728Y-54129687D01*
X97402719Y-54129686D01*
X97134813Y-54099500D01*
X97134809Y-54099500D01*
X96865191Y-54099500D01*
X96865186Y-54099500D01*
X96597280Y-54129686D01*
X96597268Y-54129688D01*
X96334405Y-54189684D01*
X96334397Y-54189687D01*
X96079917Y-54278734D01*
X95837005Y-54395714D01*
X95608712Y-54539161D01*
X95397915Y-54707265D01*
X95207265Y-54897915D01*
X95039161Y-55108712D01*
X94895714Y-55337005D01*
X94783544Y-55569930D01*
X94736722Y-55621789D01*
X94669295Y-55640102D01*
X94602671Y-55619054D01*
X94558002Y-55565328D01*
X94547824Y-55516128D01*
X94547824Y-38483871D01*
X94567509Y-38416832D01*
X94620313Y-38371077D01*
X94689471Y-38361133D01*
X94753027Y-38390158D01*
X94783544Y-38430070D01*
X94895712Y-38662991D01*
X94895716Y-38662997D01*
X95039162Y-38891289D01*
X95153237Y-39034335D01*
X95199750Y-39092661D01*
X95207266Y-39102085D01*
X95397915Y-39292734D01*
X95608711Y-39460838D01*
X95837003Y-39604284D01*
X96079921Y-39721267D01*
X96203440Y-39764488D01*
X96334397Y-39810312D01*
X96334405Y-39810315D01*
X96334408Y-39810315D01*
X96334409Y-39810316D01*
X96597268Y-39870312D01*
X96865187Y-39900499D01*
X96865188Y-39900500D01*
X96865191Y-39900500D01*
X97134812Y-39900500D01*
X97134812Y-39900499D01*
X97402732Y-39870312D01*
X97665591Y-39810316D01*
X97920079Y-39721267D01*
X98162997Y-39604284D01*
X98391289Y-39460838D01*
X98602085Y-39292734D01*
X98792734Y-39102085D01*
X98960838Y-38891289D01*
X99104284Y-38662997D01*
X99221267Y-38420079D01*
X99310316Y-38165591D01*
X99370312Y-37902732D01*
X99400500Y-37634809D01*
X99400500Y-37365191D01*
X99370312Y-37097268D01*
X99310316Y-36834409D01*
X99221267Y-36579921D01*
X99104284Y-36337003D01*
X98960838Y-36108711D01*
X98792734Y-35897915D01*
X98602085Y-35707266D01*
X98391289Y-35539162D01*
X98162997Y-35395716D01*
X98162994Y-35395714D01*
X97920082Y-35278734D01*
X97665602Y-35189687D01*
X97665594Y-35189684D01*
X97468446Y-35144687D01*
X97402732Y-35129688D01*
X97402728Y-35129687D01*
X97402719Y-35129686D01*
X97134813Y-35099500D01*
X97134809Y-35099500D01*
X96865191Y-35099500D01*
X96865186Y-35099500D01*
X96597280Y-35129686D01*
X96597268Y-35129688D01*
X96334405Y-35189684D01*
X96334397Y-35189687D01*
X96079917Y-35278734D01*
X95837005Y-35395714D01*
X95608712Y-35539161D01*
X95397915Y-35707265D01*
X95207265Y-35897915D01*
X95039161Y-36108712D01*
X94895714Y-36337005D01*
X94783544Y-36569930D01*
X94736722Y-36621789D01*
X94669295Y-36640102D01*
X94602671Y-36619054D01*
X94558002Y-36565328D01*
X94547824Y-36516128D01*
X94547824Y-34944012D01*
X94567509Y-34876973D01*
X94620313Y-34831218D01*
X94671824Y-34820012D01*
X109531391Y-34820012D01*
X109598430Y-34839697D01*
G37*
%TD.AperFunction*%
%TA.AperFunction,Conductor*%
G36*
X172722950Y-38728796D02*
G01*
X172767297Y-38757297D01*
X172800000Y-38790000D01*
X173684314Y-38790000D01*
X173679920Y-38794394D01*
X173627259Y-38885606D01*
X173600000Y-38987339D01*
X173600000Y-39092661D01*
X173627259Y-39194394D01*
X173679920Y-39285606D01*
X173684314Y-39290000D01*
X172800000Y-39290000D01*
X172800000Y-39503053D01*
X172806183Y-39581622D01*
X172855151Y-39764374D01*
X172941044Y-39932951D01*
X172941046Y-39932954D01*
X173060113Y-40079986D01*
X173207143Y-40199052D01*
X173207493Y-40199230D01*
X173207659Y-40199387D01*
X173212596Y-40202593D01*
X173212009Y-40203495D01*
X173258293Y-40247201D01*
X173275093Y-40315021D01*
X173252559Y-40381158D01*
X173211926Y-40416375D01*
X173212323Y-40416986D01*
X173207929Y-40419839D01*
X173207520Y-40420194D01*
X173206882Y-40420518D01*
X173206873Y-40420524D01*
X173059758Y-40539658D01*
X172940624Y-40686773D01*
X172940623Y-40686775D01*
X172854684Y-40855444D01*
X172805687Y-41038298D01*
X172799500Y-41116919D01*
X172799500Y-42043064D01*
X172799501Y-42043083D01*
X172805687Y-42121699D01*
X172805687Y-42121702D01*
X172805688Y-42121703D01*
X172854684Y-42304556D01*
X172884062Y-42362214D01*
X172940623Y-42473224D01*
X172940624Y-42473226D01*
X172997174Y-42543058D01*
X173059758Y-42620342D01*
X173121080Y-42670000D01*
X173206873Y-42739475D01*
X173206875Y-42739476D01*
X173206953Y-42739516D01*
X173206989Y-42739550D01*
X173212323Y-42743014D01*
X173211689Y-42743989D01*
X173257749Y-42787491D01*
X173274543Y-42855312D01*
X173252005Y-42921447D01*
X173211843Y-42956246D01*
X173212323Y-42956986D01*
X173207002Y-42960440D01*
X173206953Y-42960484D01*
X173206873Y-42960524D01*
X173059758Y-43079658D01*
X172940624Y-43226773D01*
X172940623Y-43226775D01*
X172854684Y-43395444D01*
X172805687Y-43578298D01*
X172799500Y-43656919D01*
X172799500Y-44583064D01*
X172799501Y-44583083D01*
X172805687Y-44661699D01*
X172805687Y-44661702D01*
X172805688Y-44661703D01*
X172854684Y-44844556D01*
X172884062Y-44902214D01*
X172940623Y-45013224D01*
X172940624Y-45013226D01*
X172993966Y-45079096D01*
X173059758Y-45160342D01*
X173141046Y-45226168D01*
X173206873Y-45279475D01*
X173206875Y-45279476D01*
X173206953Y-45279516D01*
X173206989Y-45279550D01*
X173212323Y-45283014D01*
X173211689Y-45283989D01*
X173257749Y-45327491D01*
X173274543Y-45395312D01*
X173252005Y-45461447D01*
X173211843Y-45496246D01*
X173212323Y-45496986D01*
X173207002Y-45500440D01*
X173206953Y-45500484D01*
X173206873Y-45500524D01*
X173059758Y-45619658D01*
X172940624Y-45766773D01*
X172940623Y-45766775D01*
X172854684Y-45935444D01*
X172805687Y-46118298D01*
X172799500Y-46196919D01*
X172799500Y-47123064D01*
X172799501Y-47123083D01*
X172805687Y-47201699D01*
X172805687Y-47201702D01*
X172805688Y-47201703D01*
X172854684Y-47384556D01*
X172884062Y-47442214D01*
X172940623Y-47553224D01*
X172940624Y-47553226D01*
X172993574Y-47618612D01*
X173059758Y-47700342D01*
X173111946Y-47742603D01*
X173206873Y-47819475D01*
X173206875Y-47819476D01*
X173206953Y-47819516D01*
X173206989Y-47819550D01*
X173212323Y-47823014D01*
X173211689Y-47823989D01*
X173257749Y-47867491D01*
X173274543Y-47935312D01*
X173252005Y-48001447D01*
X173211843Y-48036246D01*
X173212323Y-48036986D01*
X173207002Y-48040440D01*
X173206953Y-48040484D01*
X173206873Y-48040524D01*
X173059758Y-48159658D01*
X172940624Y-48306773D01*
X172940623Y-48306775D01*
X172854684Y-48475444D01*
X172805687Y-48658298D01*
X172799500Y-48736919D01*
X172799500Y-49663064D01*
X172799501Y-49663083D01*
X172805687Y-49741699D01*
X172805687Y-49741702D01*
X172805688Y-49741703D01*
X172854684Y-49924556D01*
X172884062Y-49982214D01*
X172940623Y-50093224D01*
X172940624Y-50093226D01*
X173006451Y-50174514D01*
X173059758Y-50240342D01*
X173141046Y-50306168D01*
X173206873Y-50359475D01*
X173206875Y-50359476D01*
X173206953Y-50359516D01*
X173206989Y-50359550D01*
X173212323Y-50363014D01*
X173211689Y-50363989D01*
X173257749Y-50407491D01*
X173274543Y-50475312D01*
X173252005Y-50541447D01*
X173211843Y-50576246D01*
X173212323Y-50576986D01*
X173207002Y-50580440D01*
X173206953Y-50580484D01*
X173206873Y-50580524D01*
X173059758Y-50699658D01*
X172940624Y-50846773D01*
X172940623Y-50846775D01*
X172854684Y-51015444D01*
X172805687Y-51198298D01*
X172799500Y-51276919D01*
X172799500Y-52203064D01*
X172799501Y-52203083D01*
X172805687Y-52281699D01*
X172805687Y-52281702D01*
X172805688Y-52281703D01*
X172854684Y-52464556D01*
X172884062Y-52522214D01*
X172940623Y-52633224D01*
X172940624Y-52633226D01*
X172981069Y-52683170D01*
X173059758Y-52780342D01*
X173141046Y-52846168D01*
X173206873Y-52899475D01*
X173206875Y-52899476D01*
X173206953Y-52899516D01*
X173206989Y-52899550D01*
X173212323Y-52903014D01*
X173211689Y-52903989D01*
X173257749Y-52947491D01*
X173274543Y-53015312D01*
X173252005Y-53081447D01*
X173211843Y-53116246D01*
X173212323Y-53116986D01*
X173207002Y-53120440D01*
X173206953Y-53120484D01*
X173206873Y-53120524D01*
X173059758Y-53239658D01*
X172940624Y-53386773D01*
X172940623Y-53386775D01*
X172854684Y-53555444D01*
X172805687Y-53738298D01*
X172799500Y-53816919D01*
X172799500Y-54743064D01*
X172799501Y-54743083D01*
X172805687Y-54821699D01*
X172805688Y-54821701D01*
X172805688Y-54821703D01*
X172854684Y-55004556D01*
X172884062Y-55062214D01*
X172940623Y-55173224D01*
X172940624Y-55173226D01*
X173006451Y-55254514D01*
X173059758Y-55320342D01*
X173141046Y-55386168D01*
X173206873Y-55439475D01*
X173206875Y-55439476D01*
X173206953Y-55439516D01*
X173206989Y-55439550D01*
X173212323Y-55443014D01*
X173211689Y-55443989D01*
X173257749Y-55487491D01*
X173274543Y-55555312D01*
X173252005Y-55621447D01*
X173211843Y-55656246D01*
X173212323Y-55656986D01*
X173207002Y-55660440D01*
X173206953Y-55660484D01*
X173206873Y-55660524D01*
X173059758Y-55779658D01*
X172940624Y-55926773D01*
X172940623Y-55926775D01*
X172854684Y-56095443D01*
X172828364Y-56193669D01*
X172791998Y-56253329D01*
X172729151Y-56283857D01*
X172659775Y-56275562D01*
X172613727Y-56237540D01*
X172611861Y-56239052D01*
X172605255Y-56230894D01*
X172489478Y-56087922D01*
X172403782Y-56018526D01*
X172343396Y-55969626D01*
X172175916Y-55884293D01*
X171994351Y-55835643D01*
X171923579Y-55830073D01*
X171916289Y-55829500D01*
X171916288Y-55829500D01*
X171003721Y-55829500D01*
X171003702Y-55829501D01*
X170925647Y-55835643D01*
X170744083Y-55884293D01*
X170576603Y-55969626D01*
X170430522Y-56087922D01*
X170312226Y-56234003D01*
X170300485Y-56257049D01*
X170252511Y-56307845D01*
X170184690Y-56324641D01*
X170118555Y-56302104D01*
X170079515Y-56257049D01*
X170067773Y-56234003D01*
X170018458Y-56173105D01*
X169949478Y-56087922D01*
X169863782Y-56018526D01*
X169803396Y-55969626D01*
X169635916Y-55884293D01*
X169454351Y-55835643D01*
X169383579Y-55830073D01*
X169376289Y-55829500D01*
X169376288Y-55829500D01*
X168463721Y-55829500D01*
X168463702Y-55829501D01*
X168385647Y-55835643D01*
X168204083Y-55884293D01*
X168036603Y-55969626D01*
X167890522Y-56087922D01*
X167772226Y-56234003D01*
X167760485Y-56257049D01*
X167712511Y-56307845D01*
X167644690Y-56324641D01*
X167578555Y-56302104D01*
X167539515Y-56257049D01*
X167527773Y-56234003D01*
X167478458Y-56173105D01*
X167409478Y-56087922D01*
X167323782Y-56018526D01*
X167263396Y-55969626D01*
X167095916Y-55884293D01*
X166914351Y-55835643D01*
X166843579Y-55830073D01*
X166836289Y-55829500D01*
X166836288Y-55829500D01*
X165923721Y-55829500D01*
X165923702Y-55829501D01*
X165845647Y-55835643D01*
X165664083Y-55884293D01*
X165496603Y-55969626D01*
X165350522Y-56087922D01*
X165232226Y-56234003D01*
X165220485Y-56257049D01*
X165172511Y-56307845D01*
X165104690Y-56324641D01*
X165038555Y-56302104D01*
X164999515Y-56257049D01*
X164987773Y-56234003D01*
X164938458Y-56173105D01*
X164869478Y-56087922D01*
X164783782Y-56018526D01*
X164723396Y-55969626D01*
X164555916Y-55884293D01*
X164374351Y-55835643D01*
X164303579Y-55830073D01*
X164296289Y-55829500D01*
X164296288Y-55829500D01*
X163383721Y-55829500D01*
X163383702Y-55829501D01*
X163305647Y-55835643D01*
X163124083Y-55884293D01*
X162956603Y-55969626D01*
X162810522Y-56087922D01*
X162692227Y-56234003D01*
X162685561Y-56247085D01*
X162637584Y-56297878D01*
X162569762Y-56314670D01*
X162503628Y-56292129D01*
X162464593Y-56247076D01*
X162459384Y-56236853D01*
X162459383Y-56236851D01*
X162340257Y-56089743D01*
X162253958Y-56019859D01*
X162193146Y-55970614D01*
X162038061Y-55891596D01*
X162024488Y-55884680D01*
X161957562Y-55866747D01*
X161841643Y-55835687D01*
X161769736Y-55830028D01*
X161763021Y-55829500D01*
X161763020Y-55829500D01*
X160836989Y-55829500D01*
X160836970Y-55829501D01*
X160758356Y-55835687D01*
X160575512Y-55884680D01*
X160406853Y-55970614D01*
X160259743Y-56089743D01*
X160145440Y-56230894D01*
X160087952Y-56270606D01*
X160018121Y-56272933D01*
X159958118Y-56237137D01*
X159929300Y-56184953D01*
X159905316Y-56095444D01*
X159841714Y-55970617D01*
X159819376Y-55926775D01*
X159819375Y-55926773D01*
X159750038Y-55841151D01*
X159700242Y-55779658D01*
X159616896Y-55712165D01*
X159553128Y-55660526D01*
X159553053Y-55660488D01*
X159553016Y-55660453D01*
X159547677Y-55656986D01*
X159548310Y-55656009D01*
X159502255Y-55612516D01*
X159485455Y-55544696D01*
X159507989Y-55478560D01*
X159548157Y-55443753D01*
X159547677Y-55443014D01*
X159553002Y-55439555D01*
X159553053Y-55439512D01*
X159553126Y-55439475D01*
X159700242Y-55320342D01*
X159819375Y-55173226D01*
X159905316Y-55004556D01*
X159954312Y-54821703D01*
X159960500Y-54743075D01*
X159960499Y-53816926D01*
X159954312Y-53738297D01*
X159906579Y-53560157D01*
X159908242Y-53490307D01*
X159938671Y-53440384D01*
X160118506Y-53260550D01*
X160118511Y-53260546D01*
X160128714Y-53250342D01*
X160128716Y-53250342D01*
X160240520Y-53138538D01*
X160297065Y-53040599D01*
X160319577Y-53001607D01*
X160360501Y-52848879D01*
X160360501Y-52690765D01*
X160360501Y-52683170D01*
X160360500Y-52683152D01*
X160360500Y-51040096D01*
X160380185Y-50973057D01*
X160396814Y-50952420D01*
X172591939Y-38757294D01*
X172653258Y-38723812D01*
X172722950Y-38728796D01*
G37*
%TD.AperFunction*%
%TA.AperFunction,Conductor*%
G36*
X174543039Y-38809685D02*
G01*
X174588794Y-38862489D01*
X174600000Y-38914000D01*
X174600000Y-39166000D01*
X174580315Y-39233039D01*
X174527511Y-39278794D01*
X174476000Y-39290000D01*
X174315686Y-39290000D01*
X174320080Y-39285606D01*
X174372741Y-39194394D01*
X174400000Y-39092661D01*
X174400000Y-38987339D01*
X174372741Y-38885606D01*
X174320080Y-38794394D01*
X174315686Y-38790000D01*
X174476000Y-38790000D01*
X174543039Y-38809685D01*
G37*
%TD.AperFunction*%
%TD*%
M02*
